<ttFont>
<head>
    <!-- Most of this table will be recalculated by the compiler -->
    <tableVersion value="1.0"/>
    <fontRevision value="2.0"/>
    <checkSumAdjustment value="0x2433b34b"/>
    <magicNumber value="0x5f0f3cf5"/>
    <flags value="00000000 00000011"/>
    <unitsPerEm value="2000"/>
    <created value="Fri Dec 23 10:14:22 2016"/>
    <modified value="Mon Nov 26 17:45:43 2018"/>
    <xMin value="-311"/>
    <yMin value="-461"/>
    <xMax value="2309"/>
    <yMax value="2122"/>
    <macStyle value="00000000 00000000"/>
    <lowestRecPPEM value="6"/>
    <fontDirectionHint value="2"/>
    <indexToLocFormat value="0"/>
    <glyphDataFormat value="0"/>
  </head>
          <CharString index="0">
            -29 -28 -43 -43 29 -27 42 hvcurveto
            return
          </CharString>
          <CharString index="1">
            -409 hmoveto
            42 29 27 43 43 -29 28 -42 -42 -107 callsubr
            return
          </CharString>
          <CharString index="2">
            -403 160 -155 return
          </CharString>
          <CharString index="3">
            403 -161 154 -242 -76 callgsubr
            return
          </CharString>
          <CharString index="4">
            172 275 rlineto
            -96 hlineto
            return
          </CharString>
          <CharString index="5">
            rmoveto
            116 callsubr
          </CharString>
          <CharString index="6">
            rmoveto
            122 109 49 91 68 hvcurveto
            9 hlineto
            7 return
          </CharString>
          <CharString index="7">
            rmoveto
            66 49 136 callsubr
            -49 85 callsubr
            44 24 return
          </CharString>
          <CharString index="8">
            99 callsubr
            endchar
          </CharString>
          <CharString index="9">
            1614 rmoveto
            78 hlineto
            return
          </CharString>
          <CharString index="10">
            rmoveto
            83 callsubr
            160 callsubr
            endchar
          </CharString>
          <CharString index="11">
            rmoveto
            84 callsubr
            40 callsubr
            hvcurveto
            79 vmoveto
            168 callsubr
          </CharString>
          <CharString index="12">
            rmoveto
            81 80 12 31 93 225 callsubr
            return
          </CharString>
          <CharString index="13">
            1324 rmoveto
            78 hlineto
            return
          </CharString>
          <CharString index="14">
            rmoveto
            42 29 27 43 43 -29 28 -42 -42 return
          </CharString>
          <CharString index="15">
            98 callsubr
            endchar
          </CharString>
          <CharString index="16">
            156 callsubr
            endchar
          </CharString>
          <CharString index="17">
            rmoveto
            816 176 callsubr
            hlineto
            endchar
          </CharString>
          <CharString index="18">
            rmoveto
            706 177 callsubr
            hlineto
            endchar
          </CharString>
          <CharString index="19">
            rmoveto
            -89 callgsubr
            180 -516 94 0 107 callsubr
            endchar
          </CharString>
          <CharString index="20">
            rmoveto
            17 callsubr
            -7 callsubr
            endchar
          </CharString>
          <CharString index="21">
            767 -86 -779 vlineto
            21 callgsubr
            -302 132 -135 288 vhcurveto
            endchar
          </CharString>
          <CharString index="22">
            62 11 63 hhcurveto
            91 24 -21 return
          </CharString>
          <CharString index="23">
            -49 callgsubr
            endchar
          </CharString>
          <CharString index="24">
            rmoveto
            42 29 27 44 43 -29 29 -42 return
          </CharString>
          <CharString index="25">
            165 302 164 7 callsubr
            return
          </CharString>
          <CharString index="26">
            rmoveto
            244 159 157 401 return
          </CharString>
          <CharString index="27">
            1261 rmoveto
            77 hlineto
            return
          </CharString>
          <CharString index="28">
            -371 hmoveto
            42 29 27 return
          </CharString>
          <CharString index="29">
            -49 vhcurveto
            -62 vlineto
            26 63 return
          </CharString>
          <CharString index="30">
            rmoveto
            61 50 -99 callgsubr
            -59 -79 -80 78 -98 hhcurveto
            -61 -50 -97 callgsubr
            59 79 80 -78 98 hhcurveto
            return
          </CharString>
          <CharString index="31">
            rmoveto
            117 114 45 94 85 hvcurveto
            9 hlineto
            return
          </CharString>
          <CharString index="32">
            177 225 176 -225 87 0 return
          </CharString>
          <CharString index="33">
            rmoveto
            287 129 135 302 hvcurveto
            return
          </CharString>
          <CharString index="34">
            -57 46 -125 -71 -70 -14 -21 return
          </CharString>
          <CharString index="35">
            -1634 -81 callsubr
            return
          </CharString>
          <CharString index="36">
            rmoveto
            527 71 -527 hlineto
            endchar
          </CharString>
          <CharString index="37">
            -153 275 rlineto
            -96 hlineto
            return
          </CharString>
          <CharString index="38">
            1261 rmoveto
            79 hlineto
            return
          </CharString>
          <CharString index="39">
            rmoveto
            142 202 62 169 266 vvcurveto
            905 -88 -914 vlineto
            -242 -53 -159 -126 -184 vhcurveto
            endchar
          </CharString>
          <CharString index="40">
            -108 -79 -79 -108 -107 79 -79 108 hvcurveto
            return
          </CharString>
          <CharString index="41">
            7 -121 rlineto
            76 -1 callsubr
          </CharString>
          <CharString index="42">
            rmoveto
            335 146 167 369 hvcurveto
            return
          </CharString>
          <CharString index="43">
            -31 -70 -154 18 -6 -113 hvcurveto
            return
          </CharString>
          <CharString index="44">
            -218 275 rlineto
            -91 hlineto
            return
          </CharString>
          <CharString index="45">
            63 89 80 -77 108 hhcurveto
            return
          </CharString>
          <CharString index="46">
            rmoveto
            527 70 -527 hlineto
            return
          </CharString>
          <CharString index="47">
            -9 -43 -23 -56 rrcurveto
            endchar
          </CharString>
          <CharString index="48">
            rmoveto
            44 28 27 44 44 -28 29 -44 -44 -29 -29 -44 -44 29 -27 44 hvcurveto
            return
          </CharString>
          <CharString index="49">
            1324 rmoveto
            91 hlineto
            218 275 -87 0 return
          </CharString>
          <CharString index="50">
            1717 -61 callsubr
            return
          </CharString>
          <CharString index="51">
            1351 -31 callsubr
            return
          </CharString>
          <CharString index="52">
            1261 -93 callgsubr
            return
          </CharString>
          <CharString index="53">
            -218 272 rlineto
            -91 hlineto
            return
          </CharString>
          <CharString index="54">
            171 275 rlineto
            -96 hlineto
            return
          </CharString>
          <CharString index="55">
            rmoveto
            547 70 -547 hlineto
            return
          </CharString>
          <CharString index="56">
            rmoveto
            186 111 104 159 120 -53 77 -136 58 hvcurveto
            104 54 56 88 113 vvcurveto
            155 -105 96 -171 -169 -106 -98 -156 -109 42 -76 106 -56 vhcurveto
            -110 -48 -66 -97 -122 vvcurveto
            -165 109 -97 202 vhcurveto
            20 549 rmoveto
            -175 52 -50 59 113 vvcurveto
            113 69 71 128 127 75 -67 -121 -108 -46 -64 -107 -55 vhcurveto
            -7 3 -7 2 -7 2 rrcurveto
            -254 -282 rmoveto
            109 59 84 104 41 vhcurveto
            20 -8 21 -7 return
          </CharString>
          <CharString index="57">
            rmoveto
            275 145 124 323 hvcurveto
            1069 vlineto
            50 callgsubr
            176 -129 206 126 97 56 69 57 hvcurveto
            7 -130 hlineto
            -266 -112 -91 -222 -85 -88 15 34 -98 vhcurveto
            -83 vlineto
            -30 79 108 -17 86 hhcurveto
            60 524 rmoveto
            -172 -133 94 370 351 60 callgsubr
            -100 -61 -108 -50 -103 hhcurveto
            endchar
          </CharString>
          <CharString index="58">
            rmoveto
            215 124 100 177 136 -78 91 -145 30 hvcurveto
            119 37 71 86 118 vvcurveto
            160 -106 89 -194 -75 -82 -12 -24 -56 vhcurveto
            -74 vlineto
            27 66 69 11 return
          </CharString>
          <CharString index="59">
            85 1335 hlineto
            821 -1335 rlineto
            96 1480 -85 -1335 hlineto
            -822 1335 rlineto
            -95 hlineto
            return
          </CharString>
          <CharString index="60">
            79 71 32 59 45 hvcurveto
            95 vlineto
            -73 -55 -65 -36 -77 -105 -107 117 -133 hhcurveto
            -80 -70 -32 -59 return
          </CharString>
          <CharString index="61">
            483 -18 rmoveto
            122 98 57 74 56 hvcurveto
            9 hlineto
            7 -113 rlineto
            77 return
          </CharString>
          <CharString index="62">
            rmoveto
            57 hlineto
            31 62 16 69 50 vvcurveto
            62 -29 30 -46 -41 -27 -27 -39 -41 return
          </CharString>
          <CharString index="63">
            62 89 81 -77 108 hhcurveto
            -139 return
          </CharString>
          <CharString index="64">
            -82 hlineto
            -170 147 callsubr
            return
          </CharString>
          <CharString index="65">
            1682 119 callsubr
            return
          </CharString>
          <CharString index="66">
            1682 -93 callsubr
            return
          </CharString>
          <CharString index="67">
            1388 -52 callsubr
            return
          </CharString>
          <CharString index="68">
            -4 153 hmoveto
            88 844 hlineto
            return
          </CharString>
          <CharString index="69">
            rmoveto
            78 78 6 16 91 hvcurveto
            565 -86 -496 vlineto
            -8 -51 -57 -4 -55 hhcurveto
            -327 -165 139 385 -1 hvcurveto
            399 176 132 285 83 81 -11 -27 95 vhcurveto
            83 vlineto
            23 -80 -91 11 -90 hhcurveto
            -334 -218 -167 -443 hvcurveto
            -434 1 203 -169 384 hhcurveto
            endchar
          </CharString>
          <CharString index="70">
            rmoveto
            99 89 16 27 76 hvcurveto
            83 vlineto
            -32 -96 -76 -13 -87 hhcurveto
            -259 -160 121 408 394 153 133 276 83 78 -9 -25 88 hvcurveto
            83 vlineto
            23 -76 -88 9 -86 hhcurveto
            -325 -196 -170 -440 return
          </CharString>
          <CharString index="71">
            rmoveto
            77 79 13 30 82 hvcurveto
            -1 callgsubr
            252 51 67 -7 -19 67 hvcurveto
            83 vlineto
            18 -62 -70 7 -61 hhcurveto
            -297 -162 -151 -405 return
          </CharString>
          <CharString index="72">
            685 331 79 -331 399 -76 vlineto
            -12 -399 rlineto
            -206 -79 206 -699 hlineto
            return
          </CharString>
          <CharString index="73">
            240 130 114 188 146 -65 94 -195 49 hvcurveto
            207 callsubr
          </CharString>
          <CharString index="74">
            rmoveto
            116 103 21 33 89 hvcurveto
            224 callsubr
            -375 -226 -205 -555 return
          </CharString>
          <CharString index="75">
            172 callsubr
            -132 -57 54 117 -14 hvcurveto
            -39 callgsubr
            return
          </CharString>
          <CharString index="76">
            rmoveto
            44 29 27 44 44 -29 29 -44 -44 -29 -29 -44 -44 29 -27 44 hvcurveto
            return
          </CharString>
          <CharString index="77">
            rmoveto
            41 29 25 42 42 -29 27 -41 -41 -29 -27 -42 -42 29 -25 41 hvcurveto
            return
          </CharString>
          <CharString index="78">
            rmoveto
            154 callsubr
            19 callgsubr
            endchar
          </CharString>
          <CharString index="79">
            -176 -227 -177 227 rlineto
            -87 hlineto
            return
          </CharString>
          <CharString index="80">
            218 hmoveto
            87 1002 331 79 -331 return
          </CharString>
          <CharString index="81">
            -1613 -74 callsubr
            return
          </CharString>
          <CharString index="82">
            -1634 15 callsubr
            return
          </CharString>
          <CharString index="83">
            -1907 -65 callsubr
            return
          </CharString>
          <CharString index="84">
            1614 -94 callgsubr
            return
          </CharString>
          <CharString index="85">
            1427 -61 callsubr
            return
          </CharString>
          <CharString index="86">
            1392 119 callsubr
            return
          </CharString>
          <CharString index="87">
            465 -11 106 callsubr
            return
          </CharString>
          <CharString index="88">
            -47 -41 -26 149 callsubr
            return
          </CharString>
          <CharString index="89">
            rmoveto
            89 1480 -89 hlineto
            endchar
          </CharString>
          <CharString index="90">
            rmoveto
            88 1190 -88 hlineto
            endchar
          </CharString>
          <CharString index="91">
            rmoveto
            78 hlineto
            -103 callsubr
            return
          </CharString>
          <CharString index="92">
            -181 355 rlineto
            -95 hlineto
            return
          </CharString>
          <CharString index="93">
            -154 275 rlineto
            -96 hlineto
            return
          </CharString>
          <CharString index="94">
            -73 callsubr
            -48 vhcurveto
            return
          </CharString>
          <CharString index="95">
            rmoveto
            88 1081 -88 hlineto
            endchar
          </CharString>
          <CharString index="96">
            rmoveto
            70 -92 callgsubr
            return
          </CharString>
          <CharString index="97">
            127 82 134 43 98 hhcurveto
            142 93 -66 -198 hvcurveto
            -750 88 753 vlineto
            258 -131 86 -180 -126 -113 -51 -90 -83 vhcurveto
            -8 hlineto
            -8 125 rlineto
            -76 hlineto
            return
          </CharString>
          <CharString index="98">
            78 -61 -120 -130 -100 -78 -186 hvcurveto
            -49 -74 101 hlineto
            183 83 -79 -129 -138 -94 -71 -168 -72 -81 12 27 -74 hvcurveto
            -74 vlineto
            -25 70 78 -12 81 hhcurveto
            endchar
          </CharString>
          <CharString index="99">
            232 hlineto
            175 80 67 154 47 40 -5 -8 44 vhcurveto
            83 vlineto
            8 -43 -49 3 -39 hhcurveto
            -212 -109 -109 -216 hvcurveto
            -230 -206 -79 206 vlineto
            return
          </CharString>
          <CharString index="100">
            148 -405 94 0 -441 1190 rlineto
            -121 hlineto
            -172 -706 rmoveto
            232 632 231 -632 rlineto
            return
          </CharString>
          <CharString index="101">
            1351 rmoveto
            45 callsubr
            return
          </CharString>
          <CharString index="102">
            vlineto
            10 59 70 6 63 hhcurveto
            325 154 -158 -370 -375 -164 -150 -327 hvcurveto
            endchar
          </CharString>
          <CharString index="103">
            29 -28 43 vhcurveto
            2 hlineto
            -3 -39 -60 callsubr
          </CharString>
          <CharString index="104">
            1261 rmoveto
            70 hlineto
            2 115 148 -9 128 vvcurveto
            83 -58 50 -129 return
          </CharString>
          <CharString index="105">
            1616 -88 -532 hlineto
            8 -52 -63 5 -57 hhcurveto
            31 callgsubr
            return
          </CharString>
          <CharString index="106">
            47 callsubr
            13 callsubr
            146 callsubr
            endchar
          </CharString>
          <CharString index="107">
            -157 174 hmoveto
            682 80 -594 1110 -88 hlineto
            return
          </CharString>
          <CharString index="108">
            -1456 179 callsubr
            184 callsubr
            return
          </CharString>
          <CharString index="109">
            133 56 18 callsubr
            -69 callgsubr
            return
          </CharString>
          <CharString index="110">
            -80 callsubr
            199 355 rlineto
            -94 hlineto
            return
          </CharString>
          <CharString index="111">
            rmoveto
            57 hlineto
            31 62 15 69 50 vvcurveto
            62 -28 30 return
          </CharString>
          <CharString index="112">
            vlineto
            25 62 -85 callsubr
            -30 -71 -153 return
          </CharString>
          <CharString index="113">
            1890 rmoveto
            81 hlineto
            171 232 rlineto
            return
          </CharString>
          <CharString index="114">
            -302 79 0 -198 355 rlineto
            -91 hlineto
            return
          </CharString>
          <CharString index="115">
            rmoveto
            81 hlineto
            754 1752 rlineto
            -82 hlineto
            return
          </CharString>
          <CharString index="116">
            -1170 vlineto
            -11 96 77 -4 81 hhcurveto
            return
          </CharString>
          <CharString index="117">
            1614 rmoveto
            92 hlineto
            218 275 return
          </CharString>
          <CharString index="118">
            1324 rmoveto
            73 hlineto
            -107 275 rlineto
            return
          </CharString>
          <CharString index="119">
            -368 511 -18 169 callsubr
            return
          </CharString>
          <CharString index="120">
            -135 -95 65 198 hvcurveto
            753 -88 return
          </CharString>
          <CharString index="121">
            199 1956 -61 callsubr
            return
          </CharString>
          <CharString index="122">
            -76 callsubr
            7 -121 rlineto
            76 return
          </CharString>
          <CharString index="123">
            422 6 callsubr
            -98 hlineto
            return
          </CharString>
          <CharString index="124">
            90 hlineto
            149 405 520 0 return
          </CharString>
          <CharString index="125">
            -54 -117 14 hvcurveto
            68 hlineto
            151 return
          </CharString>
          <CharString index="126">
            rmoveto
            56 hlineto
            29 140 10 163 return
          </CharString>
          <CharString index="127">
            -1351 -12 callsubr
          </CharString>
          <CharString index="128">
            1921 -93 callsubr
            return
          </CharString>
          <CharString index="129">
            1614 -11 callsubr
            return
          </CharString>
          <CharString index="130">
            1261 41 callsubr
            return
          </CharString>
          <CharString index="131">
            -385 vmoveto
            116 callsubr
          </CharString>
          <CharString index="132">
            428 -9 166 callsubr
            return
          </CharString>
          <CharString index="133">
            rmoveto
            487 70 -487 hlineto
            endchar
          </CharString>
          <CharString index="134">
            738 78 -738 hlineto
            endchar
          </CharString>
          <CharString index="135">
            737 78 -737 hlineto
            endchar
          </CharString>
          <CharString index="136">
            rmoveto
            277 186 167 441 271 -70 168 -120 89 hvcurveto
            117 10 75 65 114 vvcurveto
            48 -8 31 -12 38 vhcurveto
            -75 hlineto
            12 -38 8 -33 -43 vvcurveto
            -90 -63 -38 -94 vhcurveto
            -83 -69 18 -81 hhcurveto
            82 callsubr
            -439 186 -169 277 hvcurveto
            79 vmoveto
            168 callsubr
          </CharString>
          <CharString index="137">
            88 650 hlineto
            -5 60 55 -3 85 hhcurveto
            36 36 1 3 33 hvcurveto
            478 -646 108 0 -491 658 251 45 128 140 -2 231 rlinecurve
            284 -170 136 -356 -137 -103 -14 -17 -99 vhcurveto
            284 -741 rmoveto
            -75 -45 2 6 -76 hvcurveto
            663 vlineto
            13 79 69 8 102 hhcurveto
            46 callgsubr
            endchar
          </CharString>
          <CharString index="138">
            88 515 hlineto
            -5 50 59 -2 58 hhcurveto
            29 29 1 2 27 hvcurveto
            398 -511 108 0 -412 523 209 38 108 113 -2 185 rlinecurve
            231 -149 112 -305 -115 -94 -12 -14 -86 vhcurveto
            252 -592 rmoveto
            -64 -37 2 5 -63 hvcurveto
            518 vlineto
            11 66 58 5 83 hhcurveto
            73 callgsubr
            endchar
          </CharString>
          <CharString index="139">
            rmoveto
            532 74 -424 hlineto
            236 333 107 150 41 93 2 104 rlinecurve
            182 1 -112 76 -182 hhcurveto
            -80 -77 -12 -25 -56 hvcurveto
            -75 vlineto
            26 64 66 13 77 hhcurveto
            141 77 -53 -136 -89 -40 -85 -94 -132 hvcurveto
            -279 -397 rlineto
            endchar
          </CharString>
          <CharString index="140">
            237 -53 157 -110 88 hvcurveto
            112 21 73 79 129 vvcurveto
            60 -7 39 -17 46 vhcurveto
            -77 hlineto
            14 -46 10 -41 -55 vvcurveto
            -115 -77 -49 -110 vhcurveto
            -41 -57 7 -63 hhcurveto
            -76 callgsubr
            -105 callsubr
            -99 callsubr
          </CharString>
          <CharString index="141">
            120 hlineto
            377 1378 375 -1378 121 0 400 1480 -87 0 -374 -1394 -377 1394 -115 0 -377 -1393 -371 1393 rlineto
            -93 hlineto
            endchar
          </CharString>
          <CharString index="142">
            119 hlineto
            316 1093 314 -1093 119 0 339 1190 -85 0 -315 -1111 -317 1111 -110 0 -317 -1105 -312 1105 rlineto
            -91 hlineto
            endchar
          </CharString>
          <CharString index="143">
            114 hlineto
            294 987 293 -987 113 0 308 1081 -88 0 -277 -989 -292 989 -114 0 -292 -990 -277 990 rlineto
            -90 hlineto
            endchar
          </CharString>
          <CharString index="144">
            125 81 132 43 101 hhcurveto
            140 95 -63 -198 hvcurveto
            -751 88 751 vlineto
            260 -131 86 -178 -123 -113 -45 -95 -85 vhcurveto
            -7 return
          </CharString>
          <CharString index="145">
            894 vlineto
            130 8 89 75 136 118 callsubr
            -44 -110 vhcurveto
            -39 -975 hlineto
            158 callsubr
            endchar
          </CharString>
          <CharString index="146">
            1273 rmoveto
            150 -63 callgsubr
            -115 hhcurveto
            -114 -60 181 callsubr
            return
          </CharString>
          <CharString index="147">
            441 -183 169 -280 82 callsubr
            -439 185 -169 278 return
          </CharString>
          <CharString index="148">
            rmoveto
            80 hlineto
            164 302 164 -302 80 0 -198 355 rlineto
            -92 hlineto
            return
          </CharString>
          <CharString index="149">
            rmoveto
            43 31 28 45 45 -31 30 -43 -43 -30 -30 -45 -45 30 -28 43 hvcurveto
            endchar
          </CharString>
          <CharString index="150">
            176 225 177 -225 87 0 -218 272 rlineto
            -92 hlineto
            return
          </CharString>
          <CharString index="151">
            92 24 -21 -30 -70 -154 141 callsubr
            -75 callsubr
            return
          </CharString>
          <CharString index="152">
            41 30 27 44 43 -30 29 -41 -42 -29 -29 -43 -44 29 -27 42 hvcurveto
            return
          </CharString>
          <CharString index="153">
            41 30 27 43 44 -30 29 -41 -42 -29 -29 -44 -43 29 -27 42 hvcurveto
            return
          </CharString>
          <CharString index="154">
            1081 -88 -847 hlineto
            -124 -79 -132 -45 -98 hhcurveto
            return
          </CharString>
          <CharString index="155">
            -51 -56 -10 -14 -39 vhcurveto
            -62 vlineto
            16 43 58 8 46 hhcurveto
            return
          </CharString>
          <CharString index="156">
            -59 78 169 -10 hvcurveto
            -68 hlineto
            -203 7 94 -109 return
          </CharString>
          <CharString index="157">
            rmoveto
            -176 -131 96 368 165 callsubr
            endchar
          </CharString>
          <CharString index="158">
            1600 rmoveto
            81 hlineto
            171 232 rlineto
            -99 hlineto
            return
          </CharString>
          <CharString index="159">
            91 107 205 8 hvcurveto
            -68 hlineto
            -169 -8 -58 -78 return
          </CharString>
          <CharString index="160">
            -54 11 31 -71 hvcurveto
            -62 vlineto
            -25 55 66 -13 60 hhcurveto
            return
          </CharString>
          <CharString index="161">
            hlineto
            -613 -450 rmoveto
            87 hlineto
            -75 callsubr
            return
          </CharString>
          <CharString index="162">
            85 33 -25 -49 -85 -150 -3 -2 -143 hvcurveto
            return
          </CharString>
          <CharString index="163">
            -14 -21 -49 vhcurveto
            -60 vlineto
            25 62 62 11 63 hhcurveto
            return
          </CharString>
          <CharString index="164">
            hlineto
            31 62 16 69 50 vvcurveto
            62 -28 30 -47 -41 return
          </CharString>
          <CharString index="165">
            -629 153 hmoveto
            88 1616 -88 hlineto
            return
          </CharString>
          <CharString index="166">
            -177 -227 -176 227 rlineto
            -87 hlineto
            return
          </CharString>
          <CharString index="167">
            1614 rmoveto
            73 hlineto
            -107 275 rlineto
            return
          </CharString>
          <CharString index="168">
            -569 233 -187 352 hvcurveto
            endchar
          </CharString>
          <CharString index="169">
            -457 201 -151 306 hvcurveto
            endchar
          </CharString>
          <CharString index="170">
            -405 149 -154 265 hvcurveto
            endchar
          </CharString>
          <CharString index="171">
            787 84 -698 1396 -89 hlineto
            return
          </CharString>
          <CharString index="172">
            88 844 hlineto
            -10 callsubr
            endchar
          </CharString>
          <CharString index="173">
            55 115 -12 hvcurveto
            -66 hlineto
            -150 11 return
          </CharString>
          <CharString index="174">
            44 43 -29 29 -42 74 callsubr
            return
          </CharString>
          <CharString index="175">
            -23 -39 -34 hvcurveto
            -75 vlineto
            48 42 44 23 return
          </CharString>
          <CharString index="176">
            -75 94 hhcurveto
            -386 -318 rmoveto
            87 hlineto
            return
          </CharString>
          <CharString index="177">
            1289 rmoveto
            68 hlineto
            172 7 return
          </CharString>
          <CharString index="178">
            196 29 hmoveto
            -89 callgsubr
            return
          </CharString>
          <CharString index="179">
            14 79 rmoveto
            -65 -56 2 8 -59 hvcurveto
            return
          </CharString>
          <CharString index="180">
            -28 497 -18 -81 callsubr
            return
          </CharString>
          <CharString index="181">
            -41 -30 -29 -43 -44 30 -27 41 hvcurveto
            return
          </CharString>
          <CharString index="182">
            -55 172 hmoveto
            64 callsubr
            return
          </CharString>
          <CharString index="183">
            vlineto
            80 49 -28 -62 -63 -49 -28 -78 return
          </CharString>
          <CharString index="184">
            -1390 -81 callsubr
            return
          </CharString>
          <CharString index="185">
            1932 -44 callgsubr
            return
          </CharString>
          <CharString index="186">
            1614 138 callsubr
            return
          </CharString>
          <CharString index="187">
            1257 -95 callgsubr
            return
          </CharString>
          <CharString index="188">
            -321 -214 -208 -550 return
          </CharString>
          <CharString index="189">
            -276 -187 -169 -441 return
          </CharString>
          <CharString index="190">
            322 213 208 550 return
          </CharString>
          <CharString index="191">
            279 184 169 439 return
          </CharString>
          <CharString index="192">
            -23 -40 -34 hvcurveto
            -77 vlineto
            48 42 return
          </CharString>
          <CharString index="193">
            -75 -52 48 80 80 52 49 75 return
          </CharString>
          <CharString index="194">
            rmoveto
            78 hlineto
            172 275 rlineto
            return
          </CharString>
          <CharString index="195">
            rmoveto
            56 57 callsubr
            -26 return
          </CharString>
          <CharString index="196">
            rmoveto
            265 142 120 206 169 -94 96 -212 56 hvcurveto
            -51 14 rlineto
            -188 50 -59 62 134 vvcurveto
            146 99 86 215 80 79 -11 -24 81 vhcurveto
            83 vlineto
            20 -68 -92 11 -81 hhcurveto
            -269 -136 -122 -194 -175 97 -90 214 -57 hvcurveto
            51 -14 rlineto
            184 -49 60 -68 -128 vvcurveto
            -158 -104 -84 -210 -84 -95 15 32 -96 vhcurveto
            -83 vlineto
            -30 86 102 -13 84 hhcurveto
            return
          </CharString>
          <CharString index="197">
            rmoveto
            243 135 158 385 362 -129 119 -181 -153 -117 -97 -196 -197 121 -92 159 86 83 31 49 52 hvcurveto
            -330 -2 -104 -120 -193 hhcurveto
            -55 -57 8 21 -46 hvcurveto
            -74 vlineto
            -19 44 59 -8 55 hhcurveto
            -126 734 rmoveto
            157 86 63 108 129 94 -84 -272 8 vhcurveto
            -61 -55 -83 -25 -71 hhcurveto
            -126 -90 66 156 hvcurveto
            endchar
          </CharString>
          <CharString index="198">
            rmoveto
            151 117 97 196 197 -120 92 -160 -86 -82 -31 -49 -53 hvcurveto
            330 2 105 120 193 hhcurveto
            55 56 -8 -21 47 hvcurveto
            74 vlineto
            19 -45 -59 8 -55 hhcurveto
            -242 -136 -158 -385 -362 129 -119 183 hvcurveto
            -24 512 rmoveto
            127 89 -66 -156 -157 -86 -63 -108 -129 -94 84 272 -8 hvcurveto
            61 55 83 25 71 hhcurveto
            endchar
          </CharString>
          <CharString index="199">
            rmoveto
            219 121 101 190 181 -120 91 -262 17 hvcurveto
            -69 4 25 357 rlineto
            383 71 -454 hlineto
            -33 -495 122 -8 rlineto
            236 -13 94 -66 -144 vvcurveto
            -142 -89 -72 -172 -74 -82 13 26 -72 vhcurveto
            -74 vlineto
            -24 67 80 -13 80 hhcurveto
            endchar
          </CharString>
          <CharString index="200">
            rmoveto
            176 115 129 383 383 -117 129 -174 -174 -118 -129 -383 -383 116 -129 176 hvcurveto
            73 vmoveto
            -128 -84 97 343 344 85 94 127 127 83 -94 -346 -346 -82 -92 -128 hvcurveto
            endchar
          </CharString>
          <CharString index="201">
            rmoveto
            301 169 143 258 209 -118 120 -240 71 hvcurveto
            -61 18 rlineto
            -211 64 -80 81 170 vvcurveto
            192 120 108 250 95 92 -13 -30 95 vhcurveto
            84 vlineto
            27 -80 200 callsubr
            return
          </CharString>
          <CharString index="202">
            637 142 616 161 callsubr
            271 -826 8 callsubr
            return
          </CharString>
          <CharString index="203">
            -390 153 hmoveto
            88 823 hlineto
            119 69 127 60 111 hhcurveto
            29 19 -1 -3 25 hvcurveto
            86 vlineto
            4 -20 -22 2 -28 hhcurveto
            45 callgsubr
            return
          </CharString>
          <CharString index="204">
            88 823 hlineto
            119 69 127 60 111 hhcurveto
            29 19 -1 -3 25 hvcurveto
            86 vlineto
            4 -20 -22 2 -28 hhcurveto
            45 callgsubr
            endchar
          </CharString>
          <CharString index="205">
            -124 rlineto
            76 743 hlineto
            268 -128 86 -229 -89 -109 -16 -30 -79 vhcurveto
            -83 vlineto
            34 96 99 14 199 callsubr
            return
          </CharString>
          <CharString index="206">
            242 hvcurveto
            79 vmoveto
            -189 -56 callgsubr
            188 189 122 -112 -369 -362 -122 -114 -189 hvcurveto
            return
          </CharString>
          <CharString index="207">
            rmoveto
            138 146 rlineto
            527 78 -453 hlineto
            274 292 rlineto
            179 78 -105 hlineto
            91 97 -59 49 -137 -146 rlineto
            return
          </CharString>
          <CharString index="208">
            1261 rmoveto
            70 hlineto
            123 355 rlineto
            -80 hlineto
            -396 -355 rmoveto
            70 hlineto
            123 355 rlineto
            -80 hlineto
            return
          </CharString>
          <CharString index="209">
            -62 vlineto
            26 62 -85 callsubr
            -31 -70 -153 18 -6 -113 hvcurveto
            return
          </CharString>
          <CharString index="210">
            rmoveto
            81 hlineto
            -154 232 rlineto
            -98 hlineto
            -52 -405 -61 callsubr
            return
          </CharString>
          <CharString index="211">
            1261 rmoveto
            73 hlineto
            -112 355 rlineto
            -84 hlineto
            -163 -355 rmoveto
            73 hlineto
            -112 355 rlineto
            return
          </CharString>
          <CharString index="212">
            921 82 -804 hlineto
            793 1347 rlineto
            51 -899 -82 781 vlineto
            -792 -1347 rlineto
            return
          </CharString>
          <CharString index="213">
            rmoveto
            453 237 225 526 514 -224 240 -440 -105 -113 -12 -19 -101 hvcurveto
            return
          </CharString>
          <CharString index="214">
            -521 1480 rlineto
            -117 hlineto
            -221 -881 rmoveto
            278 797 278 -797 rlineto
            return
          </CharString>
          <CharString index="215">
            794 80 -681 hlineto
            672 1058 rlineto
            52 -777 -80 662 vlineto
            -670 -1058 rlineto
            return
          </CharString>
          <CharString index="216">
            -85 callsubr
            -31 -70 -153 18 -7 -113 hvcurveto
            return
          </CharString>
          <CharString index="217">
            rmoveto
            151 52 callsubr
            -116 hhcurveto
            -115 49 callsubr
            151 hhcurveto
            endchar
          </CharString>
          <CharString index="218">
            rmoveto
            41 29 26 42 41 -29 28 -41 -41 -29 -28 -41 -42 29 -26 41 hvcurveto
            -46 -277 rmoveto
            return
          </CharString>
          <CharString index="219">
            1324 rmoveto
            79 hlineto
            -53 callsubr
            return
          </CharString>
          <CharString index="220">
            rmoveto
            42 31 27 43 43 -31 28 -42 -43 -30 -28 -43 -43 30 -27 43 hvcurveto
            endchar
          </CharString>
          <CharString index="221">
            1794 rmoveto
            69 hlineto
            9 79 150 -18 106 vvcurveto
            61 -57 46 -125 return
          </CharString>
          <CharString index="222">
            703 -43 callgsubr
            -681 -79 570 vlineto
            -581 -949 rlineto
            return
          </CharString>
          <CharString index="223">
            43 30 26 44 43 -30 28 -43 -43 -30 -28 -43 -44 30 -26 43 hvcurveto
            endchar
          </CharString>
          <CharString index="224">
            -42 -23 -57 -74 -77 76 -94 hhcurveto
            -59 -48 -22 -40 -34 hvcurveto
            -73 vlineto
            48 42 return
          </CharString>
          <CharString index="225">
            vvcurveto
            60 -8 39 -17 46 vhcurveto
            -78 hlineto
            14 -46 10 -41 -55 vvcurveto
            -110 -77 return
          </CharString>
          <CharString index="226">
            rmoveto
            43 30 27 43 43 -30 28 -43 -43 -30 -28 -43 -43 30 -27 43 hvcurveto
            return
          </CharString>
          <CharString index="227">
            -217 272 rlineto
            -92 hlineto
            -455 -1596 -87 callsubr
          </CharString>
          <CharString index="228">
            85 153 12 hvcurveto
            -68 hlineto
            -117 -12 -55 -54 -133 hhcurveto
            -133 return
          </CharString>
          <CharString index="229">
            41 29 27 44 43 -29 29 -41 -42 -29 -29 -43 -44 29 -27 42 hvcurveto
            return
          </CharString>
          <CharString index="230">
            36 485 hmoveto
            89 1396 474 84 -1037 -84 474 hlineto
            return
          </CharString>
          <CharString index="231">
            -75 -52 49 80 80 52 49 75 74 52 -49 -80 -80 -52 -49 -74 hvcurveto
            return
          </CharString>
          <CharString index="232">
            rmoveto
            68 hlineto
            -149 270 rlineto
            -86 hlineto
            -318 -450 rmoveto
            87 hlineto
            return
          </CharString>
          <CharString index="233">
            -45 hvcurveto
            -95 vlineto
            73 55 64 36 77 106 106 -117 134 hhcurveto
            return
          </CharString>
          <CharString index="234">
            -46 hvcurveto
            -95 vlineto
            73 56 64 36 77 106 106 -117 134 hhcurveto
            return
          </CharString>
          <CharString index="235">
            -102 416 hmoveto
            88 1110 403 80 -894 -80 403 hlineto
            return
          </CharString>
          <CharString index="236">
            rmoveto
            82 hlineto
            392 953 rlineto
            47 -586 -74 496 vlineto
            endchar
          </CharString>
          <CharString index="237">
            1640 rmoveto
            68 hlineto
            117 11 56 54 133 hhcurveto
            return
          </CharString>
          <CharString index="238">
            1350 rmoveto
            68 hlineto
            117 11 56 54 133 hhcurveto
            return
          </CharString>
          <CharString index="239">
            43 44 -29 29 -42 -41 -30 -29 -44 -43 30 -27 41 hvcurveto
            return
          </CharString>
          <CharString index="240">
            295 172 hmoveto
            89 718 797 -718 88 return
          </CharString>
          <CharString index="241">
            168 174 hmoveto
            88 571 667 -571 88 return
          </CharString>
          <CharString index="242">
            159 947 rmoveto
            53 hlineto
            23 669 rlineto
            -99 hlineto
            return
          </CharString>
          <CharString index="243">
            -41 callgsubr
            -63 -89 -80 78 -108 hhcurveto
            -66 return
          </CharString>
          <CharString index="244">
            rmoveto
            172 93 90 155 3 hvcurveto
            -68 hlineto
            -118 return
          </CharString>
          <CharString index="245">
            rmoveto
            87 hlineto
            177 226 176 -226 87 0 return
          </CharString>
          <CharString index="246">
            1480 -88 -677 -797 677 -89 hlineto
            return
          </CharString>
          <CharString index="247">
            1190 -88 -538 -667 538 -88 hlineto
            return
          </CharString>
          <CharString index="248">
            18 -6 -112 hvcurveto
            -463 -180 rmoveto
            87 hlineto
            return
          </CharString>
          <CharString index="249">
            0 -176 -227 -176 227 rlineto
            -88 hlineto
            return
          </CharString>
          <CharString index="250">
            -14 hvcurveto
            -69 hlineto
            -151 12 93 -87 167 hhcurveto
            return
          </CharString>
          <CharString index="251">
            rmoveto
            69 hlineto
            9 79 150 -19 107 vvcurveto
            61 -57 return
          </CharString>
          <CharString index="252">
            1261 rmoveto
            91 hlineto
            36 callgsubr
            return
          </CharString>
          <CharString index="253">
            -753 vlineto
            -260 131 -86 176 vhcurveto
            return
          </CharString>
          <CharString index="254">
            -275 rmoveto
            73 hlineto
            -107 275 rlineto
            -81 hlineto
            return
          </CharString>
          <CharString index="255">
            115 76 51 97 91 -69 50 -100 5 hvcurveto
            return
          </CharString>
          <CharString index="256">
            -27 -39 -41 28 -28 43 vhcurveto
            3 hlineto
            -3 -39 return
          </CharString>
          <CharString index="257">
            rmoveto
            451 -248 -29 callgsubr
            endchar
          </CharString>
          <CharString index="258">
            180 172 hmoveto
            88 650 hlineto
            -5 60 55 -3 85 hhcurveto
            36 36 1 3 33 hvcurveto
            478 -646 108 0 -491 658 251 45 128 140 -2 231 rlinecurve
            284 -170 136 -356 -137 -103 -14 -17 -99 vhcurveto
            284 -741 rmoveto
            -75 -45 2 6 -76 hvcurveto
            663 vlineto
            13 79 69 8 102 hhcurveto
            46 callgsubr
            return
          </CharString>
          <CharString index="259">
            60 174 hmoveto
            88 515 hlineto
            -5 50 59 -2 58 hhcurveto
            29 29 1 2 27 hvcurveto
            398 -511 108 0 -412 523 209 38 108 113 -2 185 rlinecurve
            231 -149 112 -305 -115 -94 -12 -14 -86 vhcurveto
            252 -592 rmoveto
            -64 -37 2 5 -63 hvcurveto
            518 vlineto
            11 66 58 5 83 hhcurveto
            73 callgsubr
            return
          </CharString>
          <CharString index="260">
            rmoveto
            240 130 114 188 146 -65 94 -195 49 53 callgsubr
            200 76 61 -8 -21 80 vhcurveto
            83 vlineto
            17 -69 -68 -46 callgsubr
            -64 callgsubr
            31 -97 vhcurveto
            -83 vlineto
            -27 80 83 -13 91 hhcurveto
            return
          </CharString>
          <CharString index="261">
            91 81 7 19 112 hvcurveto
            705 -87 -632 vlineto
            -11 -61 -65 -5 -74 hhcurveto
            -388 -197 174 493 -1 hvcurveto
            511 210 166 333 96 95 -11 -34 114 vhcurveto
            84 vlineto
            28 -100 -102 15 -103 return
          </CharString>
          <CharString index="262">
            -112 153 hmoveto
            88 513 185 hlineto
            400 -513 105 0 -430 554 398 527 -103 0 -371 -489 rlineto
            -184 return
          </CharString>
          <CharString index="263">
            -406 158 -153 288 vhcurveto
            -63 1038 rmoveto
            166 106 -105 -334 5 hvcurveto
            -568 hlineto
            334 6 118 105 167 hhcurveto
            return
          </CharString>
          <CharString index="264">
            -56 -55 -134 hhcurveto
            -135 -55 66 callsubr
            89 -85 168 hhcurveto
            endchar
          </CharString>
          <CharString index="265">
            -302 -117 -139 -278 -278 -117 139 302 vhcurveto
            975 -89 -962 vlineto
            -369 149 -167 335 vhcurveto
            return
          </CharString>
          <CharString index="266">
            -165 38 hlineto
            80 49 -28 -62 -63 -49 -28 -78 -55 -53 11 31 -71 hvcurveto
            -62 vlineto
            -25 55 66 -13 59 hhcurveto
            116 return
          </CharString>
          <CharString index="267">
            550 -212 208 -323 81 callsubr
            -550 213 -208 322 -8 callgsubr
            return
          </CharString>
          <CharString index="268">
            rmoveto
            509 74 -209 930 -49 hlineto
            -257 -191 0 -84 227 169 rlineto
            -824 -221 vlineto
            return
          </CharString>
          <CharString index="269">
            -1821 rmoveto
            142 202 53 164 9 234 rrcurveto
            1221 -88 183 callsubr
          </CharString>
          <CharString index="270">
            hvcurveto
            79 vmoveto
            -222 -148 130 403 397 148 130 222 35 callgsubr
            return
          </CharString>
          <CharString index="271">
            424 1601 rmoveto
            78 hlineto
            -53 callsubr
            return
          </CharString>
          <CharString index="272">
            351 139 138 262 58 71 -7 -11 47 hvcurveto
            -779 vlineto
            -107 -61 -107 -49 -102 hhcurveto
            return
          </CharString>
          <CharString index="273">
            rmoveto
            392 205 182 421 415 -193 193 -380 -92 -99 -10 -16 -87 hvcurveto
            return
          </CharString>
          <CharString index="274">
            -265 -177 163 516 508 177 163 265 34 callgsubr
            endchar
          </CharString>
          <CharString index="275">
            -222 -148 130 403 397 148 130 222 35 callgsubr
            endchar
          </CharString>
          <CharString index="276">
            rmoveto
            45 47 6 10 46 hvcurveto
            83 vlineto
            -11 -48 -41 -6 -39 hhcurveto
            -148 -75 65 188 hvcurveto
            return
          </CharString>
          <CharString index="277">
            18 -6 -111 hvcurveto
            33 -221 rmoveto
            167 93 87 148 12 hvcurveto
            -66 hlineto
            -115 return
          </CharString>
          <CharString index="278">
            -1465 rmoveto
            124 163 47 -74 callgsubr
            -67 callgsubr
          </CharString>
          <CharString index="279">
            rmoveto
            167 90 85 153 11 hvcurveto
            -68 hlineto
            -117 -11 -56 -54 -133 hhcurveto
            return
          </CharString>
          <CharString index="280">
            rmoveto
            42 30 27 43 43 -30 28 -42 -43 -30 -28 -43 -43 30 -27 43 hvcurveto
            return
          </CharString>
          <CharString index="281">
            1273 rmoveto
            150 91 107 209 7 hvcurveto
            -68 hlineto
            -172 -7 return
          </CharString>
          <CharString index="282">
            -404 rmoveto
            49 54 15 25 40 hvcurveto
            62 vlineto
            -28 -45 -48 -15 -49 hhcurveto
            return
          </CharString>
          <CharString index="283">
            83 -728 636 625 83 -625 595 718 83 -806 return
          </CharString>
          <CharString index="284">
            79 -618 492 530 79 -530 461 610 79 -698 return
          </CharString>
          <CharString index="285">
            hhcurveto
            77 80 12 31 93 hvcurveto
            83 vlineto
            -31 -97 -77 -14 -70 hhcurveto
            -226 return
          </CharString>
          <CharString index="286">
            vlineto
            -13 118 81 -5 94 hhcurveto
            8 83 rmoveto
            -79 -64 3 9 -69 hvcurveto
            return
          </CharString>
          <CharString index="287">
            89 80 -77 109 hhcurveto
            -139 -1708 -65 callsubr
            return
          </CharString>
          <CharString index="288">
            78 172 -10 hvcurveto
            -68 hlineto
            -207 7 95 -109 150 hhcurveto
            return
          </CharString>
          <CharString index="289">
            -57 54 117 -14 hvcurveto
            -68 hlineto
            -151 12 93 -87 167 hhcurveto
            return
          </CharString>
          <CharString index="290">
            -1193 vlineto
            -242 -53 -158 -125 -185 vhcurveto
            endchar
          </CharString>
          <CharString index="291">
            1310 vlineto
            11 79 78 7 72 hhcurveto
            33 callgsubr
            return
          </CharString>
          <CharString index="292">
            542 -18 rmoveto
            270 161 152 232 181 -80 112 -209 83 hvcurveto
            157 79 87 131 174 vvcurveto
            229 -152 143 -248 -243 -152 -144 -228 -162 64 -111 160 -82 vhcurveto
            -166 -70 -102 -146 -185 vvcurveto
            -246 163 -142 290 vhcurveto
            21 801 rmoveto
            -261 75 -78 95 176 vvcurveto
            179 106 111 198 198 118 -104 -191 -170 -73 -100 -172 -82 vhcurveto
            -11 3 -13 4 -12 4 rrcurveto
            -384 -410 rmoveto
            173 94 131 163 59 vhcurveto
            33 -12 34 -12 38 -10 rrcurveto
            257 -75 85 -84 -183 vvcurveto
            -190 -124 -109 -216 -243 -121 112 200 vhcurveto
            endchar
          </CharString>
          <CharString index="293">
            rmoveto
            179 109 130 136 101 hvcurveto
            -136 100 110 -130 178 hhcurveto
            186 141 128 200 200 -139 128 -188 -178 -110 -130 -136 -100 hvcurveto
            136 -101 -109 130 -179 hhcurveto
            -188 -139 -128 -200 -200 141 -128 186 hvcurveto
            -246 328 rmoveto
            164 114 88 140 146 95 -121 -131 95 vhcurveto
            -131 -95 -95 -121 -146 hhcurveto
            -139 -115 88 164 hvcurveto
            1016 252 rmoveto
            140 114 -88 -164 -164 -116 -88 -138 -147 -94 121 131 -96 hvcurveto
            131 96 94 121 147 hhcurveto
            endchar
          </CharString>
          <CharString index="294">
            650 36 hlineto
            406 -141 152 -223 -142 -109 -64 -149 -60 vhcurveto
            155 -39 -114 56 -180 hhcurveto
            -88 -108 -16 -30 -80 hvcurveto
            -83 vlineto
            34 96 99 14 76 hhcurveto
            178 98 -56 -211 hvcurveto
            -168 -224 vlineto
            -277 -104 -130 -184 -183 123 -100 182 hvcurveto
            671 1037 rmoveto
            164 106 -101 -339 6 hvcurveto
            -560 hlineto
            335 6 113 105 165 hhcurveto
            -660 -958 rmoveto
            -143 -80 71 142 133 74 97 213 hvcurveto
            226 hlineto
            2 -91 10 -77 18 -65 rrcurveto
            -159 -83 -122 -51 -115 hhcurveto
            endchar
          </CharString>
          <CharString index="295">
            85 127 rlineto
            -101 92 126 -44 148 hhcurveto
            83 callsubr
            252 -44 180 -80 122 hvcurveto
            125 186 -87 0 -84 -126 rlineto
            100 -92 -125 44 -148 hhcurveto
            81 callsubr
            -251 44 -180 79 -121 hvcurveto
            -125 -188 rlineto
            95 744 rmoveto
            508 177 163 265 129 108 -38 -99 77 vhcurveto
            -671 -1008 rlineto
            -54 107 -31 153 214 vvcurveto
            442 -679 rmoveto
            -129 -109 39 100 -77 hvcurveto
            672 1007 rlineto
            55 -106 30 -154 -215 vvcurveto
            -508 -177 -163 -265 vhcurveto
            endchar
          </CharString>
          <CharString index="296">
            rmoveto
            125 77 118 129 65 hvcurveto
            -129 65 77 -118 126 hhcurveto
            127 97 127 202 202 -96 127 -128 -126 -76 -118 -129 -65 hvcurveto
            129 -66 -76 118 -126 hhcurveto
            -128 -96 -127 -202 -202 96 -127 128 hvcurveto
            -151 329 rmoveto
            166 79 88 79 97 60 -122 -132 63 vhcurveto
            -132 -63 -60 -122 -97 hhcurveto
            -79 -79 88 166 hvcurveto
            679 254 rmoveto
            78 80 -88 -166 -166 -80 -88 -78 -97 -60 122 132 -64 hvcurveto
            132 64 60 122 97 hhcurveto
            endchar
          </CharString>
          <CharString index="297">
            153 297 rmoveto
            96 100 68 89 rlineto
            -49 54 73 -28 87 hhcurveto
            87 73 28 50 55 hvcurveto
            67 -90 96 -100 65 65 -100 96 -92 69 rlineto
            41 55 23 73 85 vvcurveto
            84 -23 72 -41 55 vhcurveto
            92 71 102 96 -65 65 -96 -100 -70 -91 rlineto
            49 -54 -74 28 -86 hhcurveto
            -87 -73 -28 -49 -54 hvcurveto
            -70 91 -96 100 -65 -65 102 -96 92 -70 rlineto
            -40 -56 -23 -72 -84 vvcurveto
            -85 23 -73 41 -55 vhcurveto
            -93 -69 -100 -96 rlineto
            443 119 rmoveto
            -143 -98 96 163 163 98 96 145 155 85 -108 -151 -165 -99 -94 -143 hvcurveto
            endchar
          </CharString>
          <CharString index="298">
            69 97 rlineto
            -77 79 106 -34 125 hhcurveto
            84 callsubr
            203 -39 145 -69 98 hvcurveto
            106 150 -82 0 -69 -97 rlineto
            77 -78 -106 34 -126 hhcurveto
            82 callsubr
            -202 39 -144 69 -98 hvcurveto
            -106 -150 rlineto
            91 598 rmoveto
            397 148 130 222 107 89 -29 -74 64 vhcurveto
            -560 -794 rlineto
            -45 84 -25 120 166 vvcurveto
            370 -533 rmoveto
            -106 -89 29 75 -64 hvcurveto
            560 794 rlineto
            46 -83 26 -121 -167 vvcurveto
            -397 -149 -130 -224 vhcurveto
            endchar
          </CharString>
          <CharString index="299">
            rmoveto
            55 82 rlineto
            -69 68 91 -30 107 hhcurveto
            244 159 157 401 182 -33 131 -57 89 hvcurveto
            94 141 -86 0 -55 -83 rlineto
            68 -69 -90 29 -107 hhcurveto
            -76 callgsubr
            -180 32 -131 57 -90 hvcurveto
            -94 -140 rlineto
            96 545 rmoveto
            362 122 112 189 90 75 -25 -66 54 vhcurveto
            -477 -709 rlineto
            -34 75 -19 105 146 vvcurveto
            311 -483 rmoveto
            -90 -75 26 67 -54 hvcurveto
            477 710 rlineto
            35 -75 19 -106 -146 vvcurveto
            -362 -122 -114 -190 vhcurveto
            endchar
          </CharString>
          <CharString index="300">
            597 -18 rmoveto
            220 171 138 290 287 -177 136 -238 -131 -126 -45 -78 -79 hvcurveto
            514 160 193 296 81 83 -14 -29 69 vhcurveto
            83 vlineto
            29 -68 -84 12 -79 hhcurveto
            -352 -196 -230 -576 -537 188 -173 262 hvcurveto
            -33 771 rmoveto
            197 139 -101 -246 -244 -133 -100 -168 -202 -145 126 430 -14 hvcurveto
            97 84 130 38 112 hhcurveto
            endchar
          </CharString>
          <CharString index="301">
            529 153 hmoveto
            88 839 hlineto
            130 75 122 45 90 hhcurveto
            125 88 -65 -201 hvcurveto
            -748 87 752 vlineto
            33 -2 31 -4 28 vhcurveto
            131 78 122 39 84 hhcurveto
            125 92 -65 -201 hvcurveto
            -748 88 750 vlineto
            261 -127 86 -165 -102 -121 -39 -122 -97 vhcurveto
            118 -45 -94 43 -115 hhcurveto
            -112 -107 -46 -97 -81 hvcurveto
            -8 hlineto
            -8 127 rlineto
            -76 hlineto
            return
          </CharString>
          <CharString index="302">
            97 hmoveto
            361 77 hlineto
            -189 167 -68 217 327 vvcurveto
            474 130 153 200 vhcurveto
            201 1 130 -154 -474 vvcurveto
            -327 -69 -217 -189 -167 vhcurveto
            -77 361 82 -260 vlineto
            172 159 76 235 312 vvcurveto
            514 -161 196 -261 -261 -161 -196 -514 -312 76 -235 172 -159 vhcurveto
            -260 hlineto
            endchar
          </CharString>
          <CharString index="303">
            105 hmoveto
            442 77 hlineto
            -241 167 -108 217 327 vvcurveto
            452 168 175 274 275 167 -175 -452 -327 -107 -217 -242 -167 vhcurveto
            -77 442 82 -316 vlineto
            209 159 107 235 312 vvcurveto
            492 -203 218 -332 -331 -204 -218 -492 -312 108 -235 209 -159 vhcurveto
            -317 hlineto
            endchar
          </CharString>
          <CharString index="304">
            252 hmoveto
            80 hlineto
            46 487 259 0 -46 -487 80 0 46 487 rlineto
            251 80 -243 hlineto
            32 346 rlineto
            211 80 -203 hlineto
            45 487 -80 0 -45 -487 -260 0 46 487 -80 0 -45 -487 rlineto
            -251 -80 243 hlineto
            -33 -346 rlineto
            -210 -80 203 hlineto
            87 80 rmoveto
            33 346 259 0 -32 -346 rlineto
            endchar
          </CharString>
          <CharString index="305">
            403 577 rmoveto
            177 123 121 340 339 -121 121 -179 -179 -121 -121 -339 -340 124 -121 176 hvcurveto
            89 -577 rmoveto
            84 hlineto
            589 1480 rlineto
            -85 hlineto
            -677 -829 rmoveto
            -130 -88 93 296 292 88 48 callgsubr
            return
          </CharString>
          <CharString index="306">
            77 hhcurveto
            177 98 -57 -214 hvcurveto
            -134 vlineto
            -255 -30 rlineto
            -242 -26 -108 -102 -184 vvcurveto
            -183 119 -102 182 vhcurveto
            -208 294 rmoveto
            134 77 74 181 20 vhcurveto
            254 28 rlineto
            -309 vlineto
            -120 -81 -110 -42 -100 hhcurveto
            -145 -76 71 144 hvcurveto
            return
          </CharString>
          <CharString index="307">
            -108 14 -93 hhcurveto
            -304 -160 -147 -241 -206 118 -119 225 -68 hvcurveto
            62 -18 rlineto
            218 -66 88 -80 -175 vvcurveto
            -208 -127 -106 -247 -99 -106 17 39 -115 vhcurveto
            -84 vlineto
            -37 104 116 -17 96 hhcurveto
            return
          </CharString>
          <CharString index="308">
            -366 122 -161 218 -28 hvcurveto
            -151 30 vlineto
            74 40 -29 -63 -59 -37 -30 -74 -49 -53 9 30 -56 hvcurveto
            -62 vlineto
            -22 41 61 -13 53 hhcurveto
            114 64 57 89 83 -50 54 -93 9 hvcurveto
            94 vlineto
            3 3 0 3 hhcurveto
            endchar
          </CharString>
          <CharString index="309">
            1009 hlineto
            129 13 87 81 140 vvcurveto
            59 -8 39 -17 47 vhcurveto
            -77 hlineto
            15 -47 9 -40 -55 vvcurveto
            -116 -76 -49 -110 vhcurveto
            -40 -847 hlineto
            -124 -79 -132 -45 -98 hhcurveto
            13 callsubr
            146 callsubr
            return
          </CharString>
          <CharString index="310">
            93 hlineto
            184 516 538 0 29 -516 rlineto
            742 83 -659 hlineto
            -36 636 rlineto
            592 83 -597 hlineto
            -33 595 rlineto
            723 83 -1044 hlineto
            60 -83 rmoveto
            174 hlineto
            44 -798 rlineto
            -503 hlineto
            endchar
          </CharString>
          <CharString index="311">
            90 hlineto
            153 405 456 0 24 -405 rlineto
            643 79 -561 hlineto
            -30 492 rlineto
            503 79 -507 hlineto
            -29 461 rlineto
            616 79 -910 hlineto
            60 -79 rmoveto
            148 hlineto
            38 -627 rlineto
            -422 hlineto
            endchar
          </CharString>
          <CharString index="312">
            -528 200 -199 310 -26 hvcurveto
            -150 39 76 callsubr
            -55 -54 11 31 -70 hvcurveto
            -62 vlineto
            -25 54 67 -13 59 hhcurveto
            115 76 51 97 91 -68 50 -100 5 hvcurveto
            92 vlineto
            3 4 0 3 hhcurveto
            endchar
          </CharString>
          <CharString index="313">
            1846 rmoveto
            67 hlineto
            167 251 rlineto
            -85 hlineto
            -115 -472 rmoveto
            166 92 86 149 12 hvcurveto
            -66 hlineto
            -115 -16 -52 -55 -136 hhcurveto
            -136 -56 66 callsubr
            90 -85 169 hhcurveto
            endchar
          </CharString>
          <CharString index="314">
            -115 28 rlineto
            -128 32 -51 65 106 vvcurveto
            119 83 94 200 76 61 -8 -21 80 vhcurveto
            83 vlineto
            17 -69 -68 -46 callgsubr
            -64 callgsubr
            31 -97 vhcurveto
            -83 vlineto
            -27 80 83 -13 91 hhcurveto
            endchar
          </CharString>
          <CharString index="315">
            707 vlineto
            111 8 73 61 112 vvcurveto
            48 -6 31 -15 38 vhcurveto
            -73 hlineto
            13 -38 7 -33 -43 vvcurveto
            -90 -64 -34 -95 vhcurveto
            -37 -779 hlineto
            21 callgsubr
            -302 132 -135 288 vhcurveto
            return
          </CharString>
          <CharString index="316">
            173 -440 rmoveto
            88 525 hlineto
            -74 48 78 -29 100 hhcurveto
            113 112 45 94 84 hvcurveto
            8 hlineto
            8 -121 rlineto
            76 47 callsubr
            -136 -94 65 198 hvcurveto
            753 -88 vlineto
            endchar
          </CharString>
          <CharString index="317">
            73 hhcurveto
            149 78 -61 -120 -130 -100 -78 -186 hvcurveto
            -49 -74 101 hlineto
            183 83 -79 -129 -138 -94 -71 -168 -72 -81 12 27 -74 hvcurveto
            -74 vlineto
            -25 70 78 -12 81 hhcurveto
            return
          </CharString>
          <CharString index="318">
            1932 rmoveto
            61 48 22 39 36 hvcurveto
            73 vlineto
            -48 -42 -45 -23 -58 -76 -80 76 -95 hhcurveto
            -61 -48 -22 -40 -35 hvcurveto
            -73 vlineto
            48 41 45 -9 callgsubr
            -15 157 callsubr
          </CharString>
          <CharString index="319">
            1609 rmoveto
            107 79 79 108 45 -14 41 -25 32 hvcurveto
            180 177 -93 -16 callgsubr
            -75 -52 49 80 80 52 48 75 74 52 -48 -80 -80 -52 -49 -74 hvcurveto
            endchar
          </CharString>
          <CharString index="320">
            595 176 hmoveto
            85 1314 hlineto
            503 -1113 90 0 503 1118 rlineto
            -1319 85 1480 -102 vlineto
            -529 -1188 -534 1188 rlineto
            -101 hlineto
            return
          </CharString>
          <CharString index="321">
            rmoveto
            80 70 32 59 45 hvcurveto
            96 vlineto
            -73 -55 -65 -35 -77 -105 -107 116 -133 hhcurveto
            -80 -70 -32 -59 -45 hvcurveto
            -96 vlineto
            72 55 64 36 77 106 106 -116 134 hhcurveto
            endchar
          </CharString>
          <CharString index="322">
            rmoveto
            79 71 32 59 45 hvcurveto
            96 vlineto
            -73 -56 -64 -35 -77 -105 -107 116 -133 hhcurveto
            -80 -70 -32 -59 -46 hvcurveto
            -96 vlineto
            72 56 64 36 77 106 106 -116 134 hhcurveto
            endchar
          </CharString>
          <CharString index="323">
            rmoveto
            303 303 304 -303 54 55 -303 303 303 303 -54 55 -304 -303 -303 303 -55 -55 304 -303 -304 -303 rlineto
            endchar
          </CharString>
          <CharString index="324">
            rmoveto
            303 303 303 -303 55 55 -304 303 304 303 -55 55 -303 -303 -303 303 -55 -55 303 -303 -303 -303 rlineto
            endchar
          </CharString>
          <CharString index="325">
            835 rmoveto
            193 138 140 191 191 -138 139 -193 -193 -138 -139 -191 -191 138 -140 193 hvcurveto
            74 vmoveto
            -147 return
          </CharString>
          <CharString index="326">
            1261 rmoveto
            70 hlineto
            3 115 147 -9 128 vvcurveto
            83 -58 50 -129 -51 -56 -10 -14 -38 vhcurveto
            -62 vlineto
            16 42 58 8 46 hhcurveto
            55 callsubr
            return
          </CharString>
          <CharString index="327">
            -404 rmoveto
            114 63 57 89 83 -49 54 -94 9 hvcurveto
            132 -64 -185 -101 callgsubr
            -48 -53 9 30 -57 hvcurveto
            -62 vlineto
            -22 41 62 -13 53 hhcurveto
            endchar
          </CharString>
          <CharString index="328">
            428 178 hmoveto
            83 1037 hlineto
            421 -874 86 0 421 882 rlineto
            -1045 84 1190 -102 vlineto
            -445 -941 -447 941 rlineto
            -101 hlineto
            return
          </CharString>
          <CharString index="329">
            201 1174 rmoveto
            41 29 30 44 45 -31 30 -43 hvcurveto
            -4 hlineto
            3 95 23 91 35 107 rrcurveto
            -55 hlineto
            -43 -97 -32 -119 -127 vvcurveto
            -70 30 -29 47 vhcurveto
            return
          </CharString>
          <CharString index="330">
            130 -170 -170 -97 -130 -200 -200 97 -130 170 hvcurveto
            69 vmoveto
            -125 -68 98 165 163 68 96 125 125 68 -98 -165 return
          </CharString>
          <CharString index="331">
            84 vlineto
            -39 -112 -90 -17 -103 hhcurveto
            -304 -191 154 524 507 183 167 321 99 94 -12 -33 103 hvcurveto
            84 vlineto
            28 -95 -97 15 -100 hhcurveto
            return
          </CharString>
          <CharString index="332">
            hvcurveto
            83 vlineto
            -31 -97 -77 -14 -73 hhcurveto
            -230 -125 112 330 -6 hvcurveto
            658 35 hlineto
            403 -140 154 -227 -226 -157 -156 -400 return
          </CharString>
          <CharString index="333">
            476 hmoveto
            108 hlineto
            368 740 -368 740 -108 0 -366 -740 rlineto
            95 hmoveto
            326 669 327 -669 -327 -669 rlineto
            endchar
          </CharString>
          <CharString index="334">
            476 hmoveto
            108 hlineto
            368 541 -368 540 -108 0 -366 -540 rlineto
            93 hmoveto
            328 484 329 -484 -329 -485 rlineto
            endchar
          </CharString>
          <CharString index="335">
            -421 171 -161 266 -23 hvcurveto
            -154 38 76 callsubr
            -54 53 callsubr
            148 callsubr
            96 vlineto
            2 2 0 2 hhcurveto
            endchar
          </CharString>
          <CharString index="336">
            101 172 hmoveto
            89 718 219 hlineto
            565 -718 105 0 -599 762 557 718 -102 0 -523 -679 rlineto
            -222 679 -89 hlineto
            return
          </CharString>
          <CharString index="337">
            -26 174 hmoveto
            88 571 183 hlineto
            472 -571 104 0 -504 613 469 577 -102 0 -436 -538 rlineto
            -186 538 -88 hlineto
            return
          </CharString>
          <CharString index="338">
            1682 rmoveto
            41 27 28 39 41 -29 27 -42 hvcurveto
            -3 hlineto
            3 40 9 42 23 57 rrcurveto
            -57 hlineto
            -31 -62 -16 -70 -50 vvcurveto
            -61 29 -31 46 vhcurveto
            endchar
          </CharString>
          <CharString index="339">
            1351 rmoveto
            41 27 27 39 41 -29 27 -42 hvcurveto
            -3 hlineto
            3 40 9 43 23 56 rrcurveto
            -57 hlineto
            -31 -62 -16 -70 -50 vvcurveto
            -61 29 -30 46 vhcurveto
            return
          </CharString>
          <CharString index="340">
            -460 rmoveto
            176 95 103 199 -18 hvcurveto
            -126 1359 rlineto
            153 -15 59 67 129 hhcurveto
            39 30 -4 -12 41 hvcurveto
            79 vlineto
            10 -29 return
          </CharString>
          <CharString index="341">
            1846 rmoveto
            67 hlineto
            -148 -2 callgsubr
            -15 -53 -55 -136 hhcurveto
            -136 -55 66 callsubr
            89 -85 169 hhcurveto
            endchar
          </CharString>
          <CharString index="342">
            178 122 121 340 339 -122 121 -178 -177 -123 -121 -339 -340 122 -121 178 hvcurveto
            return
          </CharString>
          <CharString index="343">
            29 hmoveto
            1160 hlineto
            -521 1480 rlineto
            -117 hlineto
            -402 -1397 rmoveto
            459 1313 460 -1313 rlineto
            endchar
          </CharString>
        <CharString name=".notdef">
          -23 100 -440 rmoveto
          800 2056 -800 -2056 hlineto
          100 100 rmoveto
          1856 600 -1856 -600 vlineto
          endchar
        </CharString>
        <CharString name="A">
          71 callsubr
          180 -516 94 0 107 callsubr
          endchar
        </CharString>
        <CharString name="AE">
          646 29 hmoveto
          203 callsubr
        </CharString>
        <CharString name="AEacute">
          646 796 -98 callsubr
          -103 callsubr
          -921 -1889 rmoveto
          203 callsubr
        </CharString>
        <CharString name="Aacute">
          196 571 -98 callsubr
          -103 callsubr
          -696 -1889 -88 callsubr
        </CharString>
        <CharString name="Abreve">
          196 612 -80 callgsubr
          143 callsubr
          -583 -1625 -88 callsubr
        </CharString>
        <CharString name="Acircumflex">
          196 347 -23 callsubr
          -535 -1889 -88 callsubr
        </CharString>
        <CharString name="Adieresis">
          196 815 -41 callsubr
          -107 callsubr
          -106 callsubr
          -377 -1682 -88 callsubr
        </CharString>
        <CharString name="Agrave">
          196 571 -98 callsubr
          -70 callsubr
          -371 -1889 -88 callsubr
        </CharString>
        <CharString name="Amacron">
          196 347 -57 callsubr
          -318 -1787 -88 callsubr
        </CharString>
        <CharString name="Aogonek">
          71 callsubr
          177 -506 rlineto
          -113 -76 -46 -76 -90 30 callgsubr
          107 callsubr
          endchar
        </CharString>
        <CharString name="Aring">
          71 callsubr
          180 -516 94 0 -510 1450 rlineto
          73 25 48 66 85 vvcurveto
          107 -79 79 -107 -108 -79 -79 -107 -82 45 -65 69 -26 vhcurveto
          73 44 rmoveto
          -75 -52 49 80 80 52 48 75 74 52 -48 -80 -80 -52 -49 -74 hvcurveto
          -284 -898 rmoveto
          278 797 278 -797 rlineto
          endchar
        </CharString>
        <CharString name="Aringacute">
          71 callsubr
          180 -516 94 0 -511 1451 rlineto
          73 25 49 67 84 vvcurveto
          46 -14 40 -25 32 vhcurveto
          180 177 -93 0 -135 -135 rlineto
          17 -28 -34 9 -37 hhcurveto
          -108 -79 -79 -107 -82 45 -65 69 -26 hvcurveto
          73 44 rmoveto
          124 callsubr
          -284 -899 rmoveto
          278 797 278 -797 rlineto
          endchar
        </CharString>
        <CharString name="Atilde">
          196 749 1690 -100 callsubr
          62 89 81 -77 108 hhcurveto
          -720 -1690 -88 callsubr
        </CharString>
        <CharString name="B">
          140 490 -11 rmoveto
          425 171 139 266 192 -97 140 -214 39 hvcurveto
          199 45 69 142 158 vvcurveto
          262 -156 122 -366 -140 -106 -12 -20 -103 vhcurveto
          -1454 vlineto
          -13 111 99 -6 108 hhcurveto
          33 1425 rmoveto
          313 119 -88 -218 -200 -106 -107 -302 hvcurveto
          -287 593 hlineto
          13 75 78 7 110 hhcurveto
          -24 -1344 rmoveto
          -85 -78 3 10 -76 hvcurveto
          637 320 vlineto
          287 130 -107 -219 -220 -129 -104 -369 hvcurveto
          endchar
        </CharString>
        <CharString name="C">
          3 690 -18 -33 callsubr
          61 callsubr
        </CharString>
        <CharString name="CR">
          -574 endchar
        </CharString>
        <CharString name="Cacute">
          3 598 -98 callsubr
          -103 callsubr
          -62 -1907 -33 callsubr
          61 callsubr
        </CharString>
        <CharString name="Ccaron">
          3 591 10 callsubr
          -87 0 59 callsubr
          316 -1907 -33 callsubr
          61 callsubr
        </CharString>
        <CharString name="Ccedilla">
          3 690 -18 -33 callsubr
          205 callsubr
        </CharString>
        <CharString name="Ccircumflex">
          3 374 -23 callsubr
          99 -1907 -33 callsubr
          61 callsubr
        </CharString>
        <CharString name="Cdotaccent">
          3 637 -42 callsubr
          53 -1700 -33 callsubr
          61 callsubr
        </CharString>
        <CharString name="D">
          238 -20 callsubr
          1 callsubr
          endchar
        </CharString>
        <CharString name="Dcaron">
          238 524 1614 rmoveto
          92 hlineto
          217 275 -87 142 callsubr
          159 -1900 106 callsubr
          1 callsubr
          endchar
        </CharString>
        <CharString name="Dcroat">
          238 -20 callsubr
          -665 -173 -72 173 -719 179 callsubr
          642 325 72 -325 596 vlineto
          11 79 78 7 72 hhcurveto
          33 callgsubr
          endchar
        </CharString>
        <CharString name="E">
          19 172 hmoveto
          816 176 callsubr
          hlineto
          endchar
        </CharString>
        <CharString name="Eacute">
          19 558 1614 rmoveto
          79 hlineto
          -53 callsubr
          -540 -1889 -90 callsubr
        </CharString>
        <CharString name="Ebreve">
          19 599 1625 -32 callsubr
          -427 -1625 -90 callsubr
        </CharString>
        <CharString name="Ecaron">
          19 552 1614 rmoveto
          -62 callgsubr
          -162 -1889 -90 callsubr
        </CharString>
        <CharString name="Ecircumflex">
          19 334 79 callsubr
          -63 callsubr
          -380 -1889 -90 callsubr
        </CharString>
        <CharString name="Edieresis">
          19 802 -41 callsubr
          -107 callsubr
          -106 callsubr
          -221 -1682 -90 callsubr
        </CharString>
        <CharString name="Edotaccent">
          19 598 1682 173 callsubr
          -426 -1682 -90 callsubr
        </CharString>
        <CharString name="Egrave">
          19 558 1614 rmoveto
          79 hlineto
          -14 callsubr
          -215 -1889 -90 callsubr
        </CharString>
        <CharString name="Emacron">
          19 334 -57 callsubr
          -162 -1787 -90 callsubr
        </CharString>
        <CharString name="Eng">
          323 969 -461 rmoveto
          142 202 63 169 268 vvcurveto
          1302 -85 -1313 vlineto
          -8 0 -7 -7 vvcurveto
          -822 1335 rlineto
          -95 -1480 85 1334 hlineto
          821 -1336 -22 -155 -54 -123 -95 -138 rlinecurve
          endchar
        </CharString>
        <CharString name="Eogonek">
          19 172 hmoveto
          704 hlineto
          -102 -72 -42 -74 -86 vvcurveto
          -111 75 -61 134 54 52 13 25 53 vhcurveto
          -102 callgsubr
          -87 callgsubr
          176 callsubr
          vlineto
          endchar
        </CharString>
        <CharString name="Eth">
          238 -20 callsubr
          -665 -173 -72 173 -719 179 callsubr
          642 325 72 -325 596 vlineto
          11 79 78 7 72 hhcurveto
          33 callgsubr
          endchar
        </CharString>
        <CharString name="Euro">
          134 77 542 rmoveto
          169 hlineto
          -417 50 216 -143 309 hhcurveto
          115 103 21 33 90 hvcurveto
          84 vlineto
          -39 -113 -90 -17 -103 hhcurveto
          -261 -178 114 364 -44 hvcurveto
          633 74 -641 hlineto
          -2 40 -2 41 45 vvcurveto
          50 2 48 4 44 vhcurveto
          639 74 -631 hlineto
          340 48 172 118 270 hhcurveto
          100 93 -12 -33 104 hvcurveto
          84 vlineto
          28 -95 -97 15 -101 hhcurveto
          -320 -211 -150 -390 -55 hvcurveto
          -173 -74 165 hlineto
          -4 -46 -2 -49 -51 vvcurveto
          -43 1 -40 3 -39 vhcurveto
          -163 hlineto
          endchar
        </CharString>
        <CharString name="Euro.tf">
          40 61 542 rmoveto
          168 hlineto
          -386 43 181 -174 309 hhcurveto
          89 100 17 36 93 hvcurveto
          85 vlineto
          -41 -106 -88 -15 -85 hhcurveto
          -261 -144 145 333 -38 hvcurveto
          571 74 -577 hlineto
          -3 40 -1 42 44 vvcurveto
          50 2 47 3 45 vhcurveto
          576 74 -568 hlineto
          320 41 147 138 261 hhcurveto
          94 89 -13 -32 87 hvcurveto
          84 vlineto
          29 -86 -94 14 -88 hhcurveto
          -311 -184 -168 -372 -49 hvcurveto
          -171 -74 164 hlineto
          -4 -46 -2 -49 -51 vvcurveto
          -43 1 -40 3 -39 vhcurveto
          -162 hlineto
          endchar
        </CharString>
        <CharString name="F">
          -21 172 hmoveto
          89 716 615 83 -615 598 708 83 -797 hlineto
          endchar
        </CharString>
        <CharString name="G">
          191 787 -11 -29 callsubr
        </CharString>
        <CharString name="Gbreve">
          191 674 1625 rmoveto
          166 90 121 callsubr
          182 callsubr
          113 -1636 -29 callsubr
        </CharString>
        <CharString name="Gcaron">
          191 626 1614 rmoveto
          92 hlineto
          217 275 -87 0 -28 callsubr
          379 -1900 -29 callsubr
        </CharString>
        <CharString name="Gcircumflex">
          191 408 1614 -50 callgsubr
          161 -1900 -29 callsubr
        </CharString>
        <CharString name="Gdotaccent">
          191 672 -42 callsubr
          115 -1693 -29 callsubr
        </CharString>
        <CharString name="H">
          133 callsubr
          139 callsubr
          endchar
        </CharString>
        <CharString name="Hbar">
          133 callsubr
          1108 173 71 -173 301 -88 -301 -797 301 -89 -301 -173 -71 173 hlineto
          89 -305 rmoveto
          305 797 -305 vlineto
          endchar
        </CharString>
        <CharString name="Hcircumflex">
          295 396 -23 callsubr
          -441 -1889 rmoveto
          89 718 797 -718 88 139 callsubr
          endchar
        </CharString>
        <CharString name="I">
          -590 172 hmoveto
          89 1480 -89 hlineto
          endchar
        </CharString>
        <CharString name="I_J.loclNLD">
          -157 172 hmoveto
          89 1480 -89 hlineto
          317 162 callsubr
        </CharString>
        <CharString name="Iacute">
          -590 177 -98 callsubr
          -103 callsubr
          -159 -82 callgsubr
        </CharString>
        <CharString name="Iacute_J.loclNLD">
          -157 177 -98 callsubr
          -103 callsubr
          279 -275 -16 callsubr
          -592 -1889 rmoveto
          89 1480 -89 hlineto
          317 162 callsubr
        </CharString>
        <CharString name="Ibreve">
          -590 218 1625 172 callsubr
          -133 -56 54 117 -14 hvcurveto
          -39 callgsubr
          -46 -1625 -18 callsubr
        </CharString>
        <CharString name="Icircumflex">
          -590 -47 1614 -38 callgsubr
          1 -82 callgsubr
        </CharString>
        <CharString name="Idieresis">
          -590 421 -41 callsubr
          -107 callsubr
          -106 callsubr
          160 -1682 -18 callsubr
        </CharString>
        <CharString name="Idotaccent">
          -590 216 -42 callsubr
          -44 -1682 -18 callsubr
        </CharString>
        <CharString name="Igrave">
          -590 177 -98 callsubr
          -70 callsubr
          166 -82 callgsubr
        </CharString>
        <CharString name="Imacron">
          -590 -47 -57 callsubr
          219 -1787 -18 callsubr
        </CharString>
        <CharString name="Iogonek">
          -590 214 -404 rmoveto
          53 53 13 25 53 hvcurveto
          -102 callgsubr
          -87 callgsubr
          1480 -89 -1464 vlineto
          -120 -78 -47 -78 -92 vvcurveto
          -111 74 -61 135 vhcurveto
          endchar
        </CharString>
        <CharString name="Itilde">
          -590 355 1690 -100 callsubr
          -62 callsubr
          -183 -1690 -18 callsubr
        </CharString>
        <CharString name="J">
          -590 56 -341 rmoveto
          142 202 54 164 9 234 rrcurveto
          1221 -89 183 callsubr
        </CharString>
        <CharString name="Jcircumflex">
          -590 -47 1614 -38 callgsubr
          -115 -2230 rmoveto
          142 202 54 164 9 234 rrcurveto
          1221 -89 183 callsubr
        </CharString>
        <CharString name="K">
          229 callsubr
          endchar
        </CharString>
        <CharString name="L">
          75 callsubr
          endchar
        </CharString>
        <CharString name="Lacute">
          -55 178 1614 87 callsubr
          -97 hlineto
          -159 -1889 rmoveto
          64 callsubr
          endchar
        </CharString>
        <CharString name="Lcaron">
          -55 609 1140 rmoveto
          57 hlineto
          29 140 9 163 173 vvcurveto
          -76 hlineto
          -167 -2 -168 -17 -141 vhcurveto
          -437 -1140 rmoveto
          64 callsubr
          endchar
        </CharString>
        <CharString name="Ldot">
          75 callsubr
          521 -772 rmoveto
          44 29 28 44 43 -29 30 -44 -44 -29 -30 -43 -44 29 -28 44 hvcurveto
          endchar
        </CharString>
        <CharString name="Lslash">
          -53 175 hmoveto
          787 84 -699 681 hlineto
          263 233 0 94 -263 -232 rlineto
          620 -88 -699 vlineto
          -172 -152 0 -94 172 152 rlineto
          endchar
        </CharString>
        <CharString name="M">
          213 callsubr
          endchar
        </CharString>
        <CharString name="N">
          -105 callgsubr
          endchar
        </CharString>
        <CharString name="NULL">
          endchar
        </CharString>
        <CharString name="Nacute">
          323 634 -98 callsubr
          -103 callsubr
          -616 -1889 rmoveto
          -48 callsubr
          endchar
        </CharString>
        <CharString name="Ncaron">
          323 627 10 callsubr
          -87 0 59 callsubr
          -238 -1889 rmoveto
          -48 callsubr
          endchar
        </CharString>
        <CharString name="Ntilde">
          323 812 1690 rmoveto
          65 50 136 callsubr
          -50 85 callsubr
          44 24 63 89 80 -77 109 hhcurveto
          -640 -1690 rmoveto
          -48 callsubr
          endchar
        </CharString>
        <CharString name="O">
          258 640 -18 -97 callsubr
        </CharString>
        <CharString name="OE">
          792 778 -10 rmoveto
          105 86 10 72 hhcurveto
          720 83 -700 636 597 83 -597 595 690 83 -720 hlineto
          -73 -90 14 -110 hhcurveto
          -426 -227 -240 -514 -524 237 -226 436 hvcurveto
          -6 82 rmoveto
          -378 -196 191 477 470 184 201 375 75 69 -4 -9 72 hvcurveto
          -1316 vlineto
          -7 -58 -63 -3 -80 hhcurveto
          endchar
        </CharString>
        <CharString name="Oacute">
          -90 callgsubr
          -103 callsubr
          -115 -1907 -97 callsubr
        </CharString>
        <CharString name="Obreve">
          258 642 -80 callgsubr
          143 callsubr
          -2 -1643 -97 callsubr
        </CharString>
        <CharString name="Ocircumflex">
          258 377 -23 callsubr
          46 -1907 -97 callsubr
        </CharString>
        <CharString name="Odieresis">
          258 845 -41 callsubr
          -107 callsubr
          -106 callsubr
          204 -1700 -97 callsubr
        </CharString>
        <CharString name="Ograve">
          -90 callgsubr
          -70 callsubr
          210 -1907 -97 callsubr
        </CharString>
        <CharString name="Ohorn">
          258 640 -18 rmoveto
          321 214 205 553 345 -83 211 -141 107 hvcurveto
          137 11 89 80 137 118 callsubr
          -49 -110 vhcurveto
          -98 -62 23 -111 hhcurveto
          81 callsubr
          -550 215 -208 320 hvcurveto
          83 vmoveto
          167 callsubr
        </CharString>
        <CharString name="Ohungarumlaut">
          258 747 1614 -73 callgsubr
          -68 callgsubr
          -1907 -97 callsubr
        </CharString>
        <CharString name="Omacron">
          258 377 -57 callsubr
          263 -1805 -97 callsubr
        </CharString>
        <CharString name="Oslash">
          258 189 hmoveto
          188 callsubr
        </CharString>
        <CharString name="Oslashacute">
          258 600 -98 callsubr
          -103 callsubr
          -565 -1889 rmoveto
          188 callsubr
        </CharString>
        <CharString name="Otilde">
          258 779 1690 -100 callsubr
          -44 callsubr
          -1708 -97 callsubr
        </CharString>
        <CharString name="P">
          106 172 hmoveto
          89 519 hlineto
          -6 67 58 -3 69 hhcurveto
          402 180 172 320 339 -186 153 -356 -116 -104 -12 -19 -103 hvcurveto
          288 -871 rmoveto
          -71 -64 3 9 -64 hvcurveto
          790 -11 callgsubr
        </CharString>
        <CharString name="Q">
          258 1136 -191 rmoveto
          15 82 -164 15 -184 28 -152 54 rlinecurve
          346 -4 178 259 497 80 callgsubr
          -618 238 -220 793 -93 vhcurveto
          -496 256 rmoveto
          167 callsubr
        </CharString>
        <CharString name="R">
          180 172 hmoveto
          30 callsubr
        </CharString>
        <CharString name="Racute">
          180 531 -98 callsubr
          -103 callsubr
          -513 -1889 rmoveto
          30 callsubr
        </CharString>
        <CharString name="Rcaron">
          180 524 10 callsubr
          -88 142 callsubr
          -134 -1889 rmoveto
          30 callsubr
        </CharString>
        <CharString name="S">
          -73 406 -18 94 callsubr
          endchar
        </CharString>
        <CharString name="Sacute">
          -73 443 -98 callsubr
          -103 callsubr
          -191 -1907 94 callsubr
          endchar
        </CharString>
        <CharString name="Scaron">
          -73 436 10 callsubr
          -88 142 callsubr
          188 -1907 94 callsubr
          endchar
        </CharString>
        <CharString name="Scedilla">
          -73 406 -18 rmoveto
          14 15 0 1 13 hvcurveto
          -148 39 76 callsubr
          40 callgsubr
          99 vlineto
          234 30 130 138 226 vvcurveto
          209 -118 120 -240 71 vhcurveto
          -61 18 rlineto
          -211 64 -80 81 170 vvcurveto
          192 120 108 250 95 92 -13 -30 95 vhcurveto
          84 vlineto
          27 -80 200 callsubr
          endchar
        </CharString>
        <CharString name="Scircumflex">
          -73 218 1614 -107 callgsubr
          88 0 -218 275 rlineto
          -92 hlineto
          -30 -1907 94 callsubr
          endchar
        </CharString>
        <CharString name="T">
          123 callsubr
          endchar
        </CharString>
        <CharString name="Tbar">
          36 485 hmoveto
          89 757 314 73 -314 566 474 84 -1037 -84 474 -566 -314 -73 314 hlineto
          endchar
        </CharString>
        <CharString name="Tcaron">
          36 484 1614 rmoveto
          -62 callgsubr
          219 -1889 rmoveto
          89 1396 474 84 -1037 -84 474 hlineto
          endchar
        </CharString>
        <CharString name="Thorn">
          116 172 hmoveto
          89 277 hlineto
          -7 67 59 -2 69 hhcurveto
          402 179 172 320 339 -186 153 -356 -93 -83 -8 -10 -58 hvcurveto
          247 -89 vlineto
          288 -1131 rmoveto
          -71 -64 3 8 -64 hvcurveto
          791 -11 callgsubr
        </CharString>
        <CharString name="U">
          -104 callgsubr
          -84 callsubr
        </CharString>
        <CharString name="Uacute">
          -91 callgsubr
          -103 callsubr
          -115 -24 callsubr
          -84 callsubr
        </CharString>
        <CharString name="Ubreve">
          271 650 -80 callgsubr
          -15 hvcurveto
          -68 hlineto
          -151 12 93 -87 167 hhcurveto
          -2 -1643 -65 callsubr
          -84 callsubr
        </CharString>
        <CharString name="Ucircumflex">
          271 385 -23 callsubr
          46 -24 callsubr
          -84 callsubr
        </CharString>
        <CharString name="Udieresis">
          271 853 -41 callsubr
          -30 -28 -43 -43 30 -27 42 hvcurveto
          -106 callsubr
          204 -1700 -65 callsubr
          -84 callsubr
        </CharString>
        <CharString name="Ugrave">
          -91 callgsubr
          -153 275 rlineto
          -97 hlineto
          211 -24 callsubr
          -84 callsubr
        </CharString>
        <CharString name="Uhorn">
          -104 callgsubr
          38 callsubr
        </CharString>
        <CharString name="Uhungarumlaut">
          271 755 1614 rmoveto
          72 hlineto
          116 275 rlineto
          -68 callgsubr
          -24 callsubr
          -84 callsubr
        </CharString>
        <CharString name="Umacron">
          271 385 -57 callsubr
          263 -1805 -65 callsubr
          -84 callsubr
        </CharString>
        <CharString name="Uogonek">
          271 737 -403 rmoveto
          53 52 13 25 53 hvcurveto
          -102 callgsubr
          39 80 82 53 88 195 61 hvcurveto
          212 65 76 179 268 vvcurveto
          -49 callgsubr
          7 hlineto
          -92 -59 -36 -73 -79 vvcurveto
          -113 74 -61 136 vhcurveto
          endchar
        </CharString>
        <CharString name="Uring">
          271 648 1608 rmoveto
          108 79 79 107 108 -79 79 -108 -107 -80 -79 -108 -107 80 -79 107 hvcurveto
          23 callgsubr
          -1683 vmoveto
          335 146 167 369 hvcurveto
          -84 callsubr
        </CharString>
        <CharString name="Utilde">
          271 787 1690 rmoveto
          65 50 136 callsubr
          -50 85 callsubr
          45 24 62 180 callsubr
          -84 callsubr
        </CharString>
        <CharString name="V">
          160 529 hmoveto
          126 hlineto
          517 1480 -90 0 -488 -1405 -487 1405 rlineto
          -95 hlineto
          endchar
        </CharString>
        <CharString name="W">
          890 460 hmoveto
          34 callsubr
        </CharString>
        <CharString name="Wacute">
          890 919 -98 callsubr
          -103 callsubr
          -613 -1889 rmoveto
          34 callsubr
        </CharString>
        <CharString name="Wcircumflex">
          890 694 1614 -107 callgsubr
          87 0 -217 275 rlineto
          -92 hlineto
          -452 -1889 rmoveto
          34 callsubr
        </CharString>
        <CharString name="Wdieresis">
          890 1162 1682 rmoveto
          42 30 27 43 43 -30 28 -42 -42 -107 callsubr
          -408 hmoveto
          42 29 27 43 43 -29 28 -42 -43 -29 -28 -43 -43 29 -27 43 hvcurveto
          -294 -1682 rmoveto
          34 callsubr
        </CharString>
        <CharString name="Wgrave">
          890 919 -98 callsubr
          -14 callsubr
          -287 -1889 rmoveto
          34 callsubr
        </CharString>
        <CharString name="X">
          139 28 hmoveto
          104 hlineto
          449 672 447 -672 105 0 -500 750 488 730 -103 0 -437 -654 -436 654 -105 0 488 -731 rlineto
          endchar
        </CharString>
        <CharString name="Y">
          36 485 hmoveto
          -19 callgsubr
        </CharString>
        <CharString name="Yacute">
          36 491 -98 callsubr
          -53 callsubr
          -159 -1889 rmoveto
          -19 callgsubr
        </CharString>
        <CharString name="Ycircumflex">
          36 266 79 callsubr
          -63 callsubr
          1 -1889 rmoveto
          -19 callgsubr
        </CharString>
        <CharString name="Ydieresis">
          36 734 -41 callsubr
          -107 callsubr
          -106 callsubr
          160 -1682 rmoveto
          -19 callgsubr
        </CharString>
        <CharString name="Ygrave">
          36 491 -98 callsubr
          -14 callsubr
          166 -1889 rmoveto
          -19 callgsubr
        </CharString>
        <CharString name="Z">
          14 58 hmoveto
          105 callsubr
          endchar
        </CharString>
        <CharString name="Zacute">
          14 480 -98 callsubr
          -103 callsubr
          -576 -1889 rmoveto
          105 callsubr
          endchar
        </CharString>
        <CharString name="Zcaron">
          14 473 10 callsubr
          -87 0 59 callsubr
          -198 -1889 rmoveto
          105 callsubr
          endchar
        </CharString>
        <CharString name="Zdotaccent">
          14 519 -42 callsubr
          -461 -1682 rmoveto
          105 callsubr
          endchar
        </CharString>
        <CharString name="a">
          -98 393 -16 -101 callsubr
          -92 callsubr
        </CharString>
        <CharString name="a.sc">
          40 31 hmoveto
          17 callsubr
          -7 callsubr
          endchar
        </CharString>
        <CharString name="aacute">
          -98 419 -80 callsubr
          200 355 rlineto
          -95 hlineto
          -208 -1632 -101 callsubr
          -92 callsubr
        </CharString>
        <CharString name="aacute.sc">
          40 493 -94 callsubr
          -53 callsubr
          -615 -1599 -87 callsubr
        </CharString>
        <CharString name="abreve">
          -98 460 1273 rmoveto
          149 -63 callgsubr
          -114 hhcurveto
          -115 78 callgsubr
          151 hhcurveto
          -67 -1289 -101 callsubr
          -92 callsubr
        </CharString>
        <CharString name="abreve.sc">
          40 534 1335 rmoveto
          166 90 121 callsubr
          182 callsubr
          -503 -1335 -87 callsubr
        </CharString>
        <CharString name="acircumflex">
          -98 214 -69 callsubr
          -82 callsubr
          -19 -1632 -101 callsubr
          -92 callsubr
        </CharString>
        <CharString name="acircumflex.sc">
          40 268 1324 -50 callgsubr
          -455 -1599 -87 callsubr
        </CharString>
        <CharString name="acute">
          -98 424 3 callsubr
          endchar
        </CharString>
        <CharString name="acutecomb">
          424 3 callsubr
          endchar
        </CharString>
        <CharString name="acutecomb.case">
          424 -98 callsubr
          -53 callsubr
          endchar
        </CharString>
        <CharString name="acutecomb.sc">
          424 -98 callsubr
          -53 callsubr
          endchar
        </CharString>
        <CharString name="adieresis">
          -98 643 -6 callsubr
          -370 hmoveto
          122 callsubr
          120 -1367 -101 callsubr
          -92 callsubr
        </CharString>
        <CharString name="adieresis.sc">
          40 736 1392 -93 callsubr
          -107 callsubr
          -409 hmoveto
          42 30 27 43 43 -30 28 -42 -42 -107 callsubr
          -296 -1392 -87 callsubr
        </CharString>
        <CharString name="ae">
          492 397 -16 rmoveto
          129 127 46 159 106 hvcurveto
          -147 70 127 -60 179 178 callsubr
          -125 112 330 -6 hvcurveto
          187 callsubr
        </CharString>
        <CharString name="ae.sc">
          430 31 hmoveto
          204 callsubr
        </CharString>
        <CharString name="aeacute">
          492 702 -55 callsubr
          -487 -1632 rmoveto
          129 127 46 159 106 hvcurveto
          -147 70 127 -60 179 178 callsubr
          -125 112 330 -6 hvcurveto
          187 callsubr
        </CharString>
        <CharString name="aeacute.sc">
          430 688 -94 callsubr
          -103 callsubr
          -811 -1599 rmoveto
          204 callsubr
        </CharString>
        <CharString name="agrave">
          -98 419 -80 callsubr
          -15 callsubr
          173 -1632 -101 callsubr
          -92 callsubr
        </CharString>
        <CharString name="agrave.sc">
          40 493 -94 callsubr
          -14 callsubr
          -290 -1599 -87 callsubr
        </CharString>
        <CharString name="amacron">
          -98 184 -40 callsubr
          209 -1474 -101 callsubr
          -92 callsubr
        </CharString>
        <CharString name="amacron.sc">
          40 268 -22 callsubr
          -237 -1497 -87 callsubr
        </CharString>
        <CharString name="ampersand">
          334 627 -18 rmoveto
          200 151 70 138 83 hvcurveto
          242 -210 54 67 -258 223 rlineto
          24 64 12 75 86 vvcurveto
          87 -12 98 -26 89 vhcurveto
          -85 hlineto
          27 -89 14 -100 -86 vvcurveto
          -63 -7 -56 -13 -48 vhcurveto
          -387 334 rlineto
          -208 181 -52 102 149 vvcurveto
          211 116 112 253 71 66 -7 -21 75 vhcurveto
          85 vlineto
          16 -63 -72 9 -76 hhcurveto
          -308 -154 -146 -261 -103 25 -86 67 -93 hvcurveto
          -156 -84 -87 -141 -181 vvcurveto
          -252 173 -169 311 vhcurveto
          -392 430 rmoveto
          149 67 114 133 72 vhcurveto
          42 -47 52 -50 64 -55 407 -352 rcurveline
          -125 -68 -128 -56 -172 hhcurveto
          -265 -132 139 211 hvcurveto
          endchar
        </CharString>
        <CharString name="ampersand.sc">
          121 512 -14 rmoveto
          171 129 55 109 73 hvcurveto
          207 -166 52 66 -220 176 rlineto
          19 52 11 61 69 vvcurveto
          68 -11 79 -22 71 vhcurveto
          -81 hlineto
          23 -71 12 -80 -68 vvcurveto
          -49 -5 -42 -11 -38 vhcurveto
          -336 269 rlineto
          -166 136 -43 78 113 vvcurveto
          164 96 85 216 60 57 -6 -15 64 vhcurveto
          82 vlineto
          13 -55 -62 7 -65 hhcurveto
          -268 -135 -118 -212 -83 22 -70 56 -73 hvcurveto
          -131 -67 -74 -112 -145 vvcurveto
          -204 148 -134 269 vhcurveto
          -327 348 rmoveto
          113 53 88 110 58 vhcurveto
          33 -35 41 -37 49 -40 354 -283 rcurveline
          -93 -59 -106 -43 -142 hhcurveto
          -223 -110 107 165 hvcurveto
          endchar
        </CharString>
        <CharString name="aogonek">
          -98 393 -16 -101 callsubr
          -104 rlineto
          -112 -80 -48 -79 -93 vvcurveto
          -107 70 -65 120 49 54 15 25 40 vhcurveto
          62 vlineto
          -28 -46 -48 -15 -49 hhcurveto
          -78 -96 callgsubr
          743 vlineto
          268 -128 86 -229 -89 -109 -16 -30 -79 vhcurveto
          -83 vlineto
          34 96 99 14 199 callsubr
          endchar
        </CharString>
        <CharString name="aogonek.sc">
          40 31 hmoveto
          17 callsubr
          145 -395 rlineto
          -114 -75 -45 -77 -90 vvcurveto
          -111 74 -61 135 53 53 13 25 53 vhcurveto
          -102 callgsubr
          -87 callgsubr
          -441 1190 rlineto
          -121 hlineto
          -172 -706 rmoveto
          232 632 231 -632 rlineto
          endchar
        </CharString>
        <CharString name="approxequal">
          17 694 847 rmoveto
          -47 callsubr
          127 callsubr
          -368 vmoveto
          -47 callsubr
          127 callsubr
          endchar
        </CharString>
        <CharString name="approxequal.osf">
          17 694 647 rmoveto
          -47 callsubr
          127 callsubr
          -368 vmoveto
          -47 callsubr
          127 callsubr
          endchar
        </CharString>
        <CharString name="approxequal.tf">
          40 705 847 rmoveto
          -47 callsubr
          126 callsubr
          -368 vmoveto
          -47 callsubr
          126 callsubr
          endchar
        </CharString>
        <CharString name="approxequal.tosf">
          40 705 647 rmoveto
          -47 callsubr
          126 callsubr
          -368 vmoveto
          -47 callsubr
          126 callsubr
          endchar
        </CharString>
        <CharString name="aring">
          -98 458 80 callsubr
          -67 callsubr
          58 vmoveto
          -74 -53 48 80 80 53 49 74 -88 callgsubr
          -65 -1331 -101 callsubr
          -92 callsubr
        </CharString>
        <CharString name="aring.sc">
          40 532 1318 rmoveto
          107 80 79 107 108 -80 79 -107 -67 callsubr
          23 callgsubr
          -501 -1375 -87 callsubr
        </CharString>
        <CharString name="aringacute">
          -98 458 1257 rmoveto
          107 79 79 107 -30 callgsubr
          -74 -53 48 80 80 53 49 74 -88 callgsubr
          -65 -1331 -101 callsubr
          -92 callsubr
        </CharString>
        <CharString name="aringacute.sc">
          40 532 1319 rmoveto
          107 80 79 108 45 -15 41 -25 32 hvcurveto
          181 177 -94 -16 callgsubr
          -74 -53 49 80 80 53 48 74 74 53 -48 -80 -80 -53 -49 -74 hvcurveto
          -501 -1377 -87 callsubr
        </CharString>
        <CharString name="arrowdown">
          280 652 218 rmoveto
          500 501 -53 52 -406 -406 rlineto
          939 -83 -939 vlineto
          -406 406 -53 -52 rlineto
          endchar
        </CharString>
        <CharString name="arrowleft">
          365 652 260 rmoveto
          52 52 -406 407 rlineto
          939 82 -939 hlineto
          406 407 -52 52 -501 -500 rlineto
          endchar
        </CharString>
        <CharString name="arrowright">
          365 736 260 rmoveto
          501 500 -501 500 -52 -52 406 -407 rlineto
          -939 -82 939 hlineto
          -406 -407 rlineto
          endchar
        </CharString>
        <CharString name="arrowup">
          280 610 218 rmoveto
          83 939 hlineto
          406 -406 53 52 -500 501 -501 -501 53 -52 406 406 rlineto
          endchar
        </CharString>
        <CharString name="asciicircum">
          40 -21 callgsubr
        </CharString>
        <CharString name="asciicircum.osf">
          40 -20 callgsubr
        </CharString>
        <CharString name="asciicircum.tf">
          40 -21 callgsubr
        </CharString>
        <CharString name="asciicircum.tosf">
          40 -20 callgsubr
        </CharString>
        <CharString name="asciitilde">
          17 694 657 215 callsubr
        </CharString>
        <CharString name="asciitilde.osf">
          17 694 457 215 callsubr
        </CharString>
        <CharString name="asciitilde.tf">
          40 705 657 214 callsubr
        </CharString>
        <CharString name="asciitilde.tosf">
          40 705 457 214 callsubr
        </CharString>
        <CharString name="asterisk">
          -163 463 1205 rmoveto
          198 46 169 54 -24 72 -167 -54 -189 -80 18 204 rlineto
          169 -77 -169 vlineto
          18 -204 -188 80 -167 54 -24 -72 168 -54 199 -46 -134 -155 -102 -139 62 -45 103 139 104 175 104 -175 103 -139 62 45 -103 139 rlineto
          endchar
        </CharString>
        <CharString name="at">
          685 898 -460 rmoveto
          126 120 23 33 98 hvcurveto
          80 vlineto
          -39 -117 -107 -19 -120 hhcurveto
          -458 -248 231 675 663 247 233 421 420 241 -231 -633 1 hvcurveto
          -373 -103 -123 -103 -84 -36 51 114 vhcurveto
          522 vlineto
          263 -127 86 -227 -87 -109 -16 -31 -79 vhcurveto
          -83 vlineto
          35 96 99 14 75 hhcurveto
          174 98 -57 -209 hvcurveto
          -138 vlineto
          -260 -31 rlineto
          -237 -27 -108 -100 -184 vvcurveto
          -185 120 -100 181 122 111 49 92 71 vhcurveto
          9 hlineto
          -85 20 63 -56 106 hhcurveto
          162 133 163 415 1 hvcurveto
          657 -270 279 -473 -475 -280 -279 -699 -706 283 -273 510 -1 vhcurveto
          -301 739 rmoveto
          133 78 73 176 20 vhcurveto
          258 30 rlineto
          -310 vlineto
          -120 -81 -110 -42 -100 hhcurveto
          -145 -76 71 145 hvcurveto
          endchar
        </CharString>
        <CharString name="atilde">
          -98 586 1372 rmoveto
          61 50 -99 callgsubr
          -59 -6 callgsubr
          -193 -1388 -101 callsubr
          -92 callsubr
        </CharString>
        <CharString name="atilde.sc">
          40 670 1400 rmoveto
          66 49 -41 callgsubr
          -62 -89 -80 78 -109 hhcurveto
          -65 -50 85 callsubr
          44 24 -62 callsubr
          -639 -1400 -87 callsubr
        </CharString>
        <CharString name="b">
          -19 420 -18 rmoveto
          314 175 179 399 407 -175 130 -207 -126 -96 -56 -69 -57 hvcurveto
          -7 644 -88 -1593 hlineto
          -26 76 101 -15 90 hhcurveto
          4 80 rmoveto
          -66 -71 11 14 -46 hvcurveto
          779 vlineto
          100 61 106 49 105 hhcurveto
          171 133 -94 -370 -351 -139 -138 -254 hvcurveto
          endchar
        </CharString>
        <CharString name="b.sc">
          17 454 -9 rmoveto
          362 149 113 214 158 -86 109 -176 32 hvcurveto
          165 34 60 113 127 vvcurveto
          210 -135 101 -316 -115 -99 -10 -17 -89 vhcurveto
          -1168 vlineto
          -11 95 88 -5 97 hhcurveto
          28 1135 rmoveto
          260 100 -70 -169 -150 -83 -87 -259 hvcurveto
          -239 459 hlineto
          11 63 71 6 87 hhcurveto
          -20 -1060 rmoveto
          -72 -65 3 7 -64 hvcurveto
          497 267 vlineto
          244 106 -85 -168 -171 -109 -83 -307 hvcurveto
          endchar
        </CharString>
        <CharString name="backslash">
          -533 401 -240 rmoveto
          89 hlineto
          -401 1856 rlineto
          -89 hlineto
          endchar
        </CharString>
        <CharString name="bar">
          -593 172 -440 rmoveto
          85 2056 -85 hlineto
          endchar
        </CharString>
        <CharString name="bar.tf">
          40 489 -440 rmoveto
          85 2056 -85 hlineto
          endchar
        </CharString>
        <CharString name="braceleft">
          -389 550 -460 rmoveto
          45 47 4 6 31 hvcurveto
          71 -123 vlineto
          -154 -76 69 155 hvcurveto
          555 70 callgsubr
          486 vlineto
          155 76 69 154 vhcurveto
          123 71 hlineto
          6 -31 -47 4 -45 hhcurveto
          -210 -108 -104 -208 hvcurveto
          -486 26 callgsubr
          -555 vlineto
          -208 108 -104 210 vhcurveto
          endchar
        </CharString>
        <CharString name="braceleft.sc">
          -413 526 -260 rmoveto
          46 46 4 6 32 hvcurveto
          71 -124 vlineto
          -130 -76 69 133 hvcurveto
          405 70 callgsubr
          344 vlineto
          133 76 69 130 vhcurveto
          124 71 hlineto
          6 -32 -46 4 -46 hhcurveto
          -186 -108 -104 -187 hvcurveto
          -343 26 callgsubr
          -404 vlineto
          -187 108 -104 186 vhcurveto
          endchar
        </CharString>
        <CharString name="braceright">
          -389 84 -460 rmoveto
          210 108 104 208 hvcurveto
          555 vlineto
          123 60 53 114 vhcurveto
          13 79 -13 hlineto
          -114 -60 53 123 hvcurveto
          486 vlineto
          208 -108 104 -210 -45 -47 -4 -6 -31 vhcurveto
          -71 123 vlineto
          154 76 -69 -155 hvcurveto
          -486 69 callgsubr
          -555 vlineto
          -155 -76 -69 -154 vhcurveto
          -123 -71 hlineto
          -6 31 47 -4 45 hhcurveto
          endchar
        </CharString>
        <CharString name="braceright.sc">
          -413 84 -260 rmoveto
          186 108 104 187 hvcurveto
          404 vlineto
          123 61 53 113 vhcurveto
          14 79 -14 hlineto
          -113 -61 53 123 hvcurveto
          343 vlineto
          187 -108 104 -186 -45 -47 -4 -6 -31 vhcurveto
          -71 123 vlineto
          131 75 -69 -133 hvcurveto
          -344 69 callgsubr
          -405 vlineto
          -133 -75 -69 -131 vhcurveto
          -123 -71 hlineto
          -6 31 47 -4 45 hhcurveto
          endchar
        </CharString>
        <CharString name="bracketleft">
          -429 192 -440 rmoveto
          441 79 -353 1898 353 79 -441 hlineto
          endchar
        </CharString>
        <CharString name="bracketleft.sc">
          -484 192 -245 rmoveto
          386 79 -298 1572 298 79 -386 hlineto
          endchar
        </CharString>
        <CharString name="bracketright">
          -429 -39 -440 rmoveto
          441 2056 -441 -79 353 -1898 -353 hlineto
          endchar
        </CharString>
        <CharString name="bracketright.sc">
          -484 -39 -240 rmoveto
          386 1720 -386 -79 298 -1562 -298 hlineto
          endchar
        </CharString>
        <CharString name="breve">
          -98 464 39 callsubr
          endchar
        </CharString>
        <CharString name="brokenbar">
          -593 172 27 callgsubr
        </CharString>
        <CharString name="brokenbar.tf">
          40 489 27 callgsubr
        </CharString>
        <CharString name="bullet">
          -357 333 351 rmoveto
          117 93 88 121 122 -93 87 -117 -117 -92 -87 -122 -121 92 -88 117 hvcurveto
          endchar
        </CharString>
        <CharString name="c">
          -250 509 -18 -36 callsubr
          63 callsubr
        </CharString>
        <CharString name="c.sc">
          -126 608 -14 -37 callsubr
          62 callsubr
        </CharString>
        <CharString name="cacute">
          -250 426 -55 callsubr
          -99 -1634 -36 callsubr
          63 callsubr
        </CharString>
        <CharString name="cacute.sc">
          -126 523 -94 callsubr
          -53 callsubr
          -68 -1613 -37 callsubr
          62 callsubr
        </CharString>
        <CharString name="caron">
          -98 417 145 callsubr
          endchar
        </CharString>
        <CharString name="caron.alt">
          -98 444 1180 19 callsubr
          -71 callgsubr
        </CharString>
        <CharString name="ccaron">
          -250 419 -77 callgsubr
          290 -1634 -36 callsubr
          63 callsubr
        </CharString>
        <CharString name="ccaron.sc">
          -126 516 -58 callsubr
          -28 callsubr
          310 -1613 -37 callsubr
          62 callsubr
        </CharString>
        <CharString name="ccedilla">
          -250 509 -18 -36 callsubr
          201 callsubr
        </CharString>
        <CharString name="ccedilla.sc">
          -126 608 -14 -37 callsubr
          228 callsubr
        </CharString>
        <CharString name="ccircumflex">
          -250 221 23 callsubr
          90 -1634 -36 callsubr
          63 callsubr
        </CharString>
        <CharString name="ccircumflex.sc">
          -126 298 -79 callgsubr
          -63 callsubr
          92 -1613 -37 callsubr
          62 callsubr
        </CharString>
        <CharString name="cdotaccent">
          -250 465 -56 callsubr
          44 -1369 -36 callsubr
          63 callsubr
        </CharString>
        <CharString name="cdotaccent.sc">
          -126 562 -21 callsubr
          46 -1406 -37 callsubr
          62 callsubr
        </CharString>
        <CharString name="cedilla">
          -98 463 220 callsubr
        </CharString>
        <CharString name="cent">
          -250 467 -240 rmoveto
          80 223 hlineto
          65 4 66 13 69 25 rrcurveto
          -1 callgsubr
          247 56 66 -7 -19 68 hvcurveto
          83 vlineto
          18 -64 -67 7 -61 -2 -3 0 -3 hhcurveto
          224 -80 -229 vlineto
          -242 -29 -130 -159 -363 vvcurveto
          -384 133 -158 239 -16 vhcurveto
          endchar
        </CharString>
        <CharString name="cent.tf">
          40 620 -240 rmoveto
          80 222 hlineto
          95 4 95 17 91 32 rrcurveto
          84 vlineto
          -40 -121 -97 -15 -88 hhcurveto
          -281 -156 140 340 333 156 138 318 98 82 -13 -24 89 hvcurveto
          83 vlineto
          24 -88 -84 12 -100 -3 -3 0 -3 hhcurveto
          206 -80 -209 vlineto
          -308 -28 -167 -176 -350 vvcurveto
          -364 172 -177 303 -16 vhcurveto
          endchar
        </CharString>
        <CharString name="circumflex">
          -98 219 -69 callsubr
          -82 callsubr
          endchar
        </CharString>
        <CharString name="colon">
          -628 197 943 rmoveto
          38 callgsubr
          -954 vmoveto
          38 callgsubr
          endchar
        </CharString>
        <CharString name="colon.tf">
          -492 266 943 rmoveto
          42 31 64 callgsubr
          -954 vmoveto
          42 31 64 callgsubr
          endchar
        </CharString>
        <CharString name="colonmonetary">
          3 690 -18 rmoveto
          106 105 18 35 97 hvcurveto
          85 vlineto
          -41 -118 -92 -15 -95 hhcurveto
          -314 -181 165 513 508 184 166 320 92 95 -10 -35 109 hvcurveto
          84 vlineto
          -23 7 -24 6 -23 6 rrcurveto
          70 246 -74 0 -67 -233 rlineto
          7 -51 -51 4 -50 -5 -5 0 -5 hhcurveto
          63 222 -74 0 -65 -226 rlineto
          -323 -33 -186 -217 -506 vvcurveto
          -256 47 -181 87 -121 vhcurveto
          -120 -420 74 0 102 355 42 -39 48 -30 54 -22 rlinecurve
          -75 -264 74 0 69 242 rlineto
          -14 56 61 -6 66 hhcurveto
          endchar
        </CharString>
        <CharString name="colonmonetary.tf">
          40 143 -240 rmoveto
          74 hlineto
          101 356 41 -40 48 -30 53 -21 rlinecurve
          -74 -265 74 0 68 242 rlineto
          -14 55 60 -6 65 hhcurveto
          105 103 18 35 97 hvcurveto
          85 vlineto
          -41 -118 -89 -15 -95 hhcurveto
          -306 -182 165 513 508 185 166 312 91 93 -10 -35 109 hvcurveto
          84 vlineto
          -23 7 -23 6 -24 6 rrcurveto
          70 246 -74 0 -66 -233 rlineto
          7 -50 -50 4 -50 -5 -5 0 -5 hhcurveto
          63 222 -74 0 -64 -226 rlineto
          -318 -33 -186 -218 -505 vvcurveto
          -255 47 -181 86 -121 vhcurveto
          endchar
        </CharString>
        <CharString name="comma">
          -628 141 -304 rmoveto
          -42 callgsubr
          0 callgsubr
          endchar
        </CharString>
        <CharString name="comma.tf">
          -492 209 -294 rmoveto
          56 hlineto
          42 92 32 119 122 42 callgsubr
          -90 -22 -91 -35 -102 rrcurveto
          endchar
        </CharString>
        <CharString name="copyright">
          676 850 -22 rmoveto
          446 298 304 458 458 -298 304 -446 -447 -298 -304 -458 -458 298 -304 447 hvcurveto
          77 vmoveto
          -402 -265 272 413 413 265 272 402 401 265 -272 -413 -413 -265 -272 -401 hvcurveto
          36 269 rmoveto
          78 72 12 29 67 hvcurveto
          78 vlineto
          -31 -82 -70 -10 -58 hhcurveto
          -190 -119 106 230 223 118 105 213 69 57 -10 -17 62 hvcurveto
          77 vlineto
          20 -64 -60 8 -68 hhcurveto
          -265 -148 -148 -262 -271 155 -139 233 hvcurveto
          endchar
        </CharString>
        <CharString name="currency">
          40 190 callsubr
        </CharString>
        <CharString name="currency.tf">
          40 190 callsubr
        </CharString>
        <CharString name="d">
          -19 -46 callsubr
          -2 callsubr
          11 82 50 callsubr
        </CharString>
        <CharString name="d.sc">
          103 25 callsubr
          9 callsubr
          72 callsubr
          1027 -5 callsubr
        </CharString>
        <CharString name="dagger">
          -103 433 160 rmoveto
          54 hlineto
          13 220 0 626 -13 217 220 -14 rlineto
          136 77 -136 hlineto
          -220 -13 13 217 rlineto
          126 -81 -126 vlineto
          14 -217 -220 13 rlineto
          -137 -77 137 hlineto
          220 14 -14 -217 rlineto
          -626 vlineto
          endchar
        </CharString>
        <CharString name="daggerdbl">
          -103 418 160 rmoveto
          80 126 hlineto
          -13 215 278 -11 rlineto
          80 77 -80 hlineto
          -278 -12 13 234 0 217 -13 215 278 -12 rlineto
          80 77 -80 hlineto
          -278 -11 13 215 rlineto
          126 -80 -126 vlineto
          13 -215 -274 11 rlineto
          -81 -77 81 hlineto
          274 12 -13 -215 0 -217 13 -234 -274 12 rlineto
          -81 -77 81 hlineto
          274 11 -13 -215 rlineto
          endchar
        </CharString>
        <CharString name="dcaron">
          -19 -46 callsubr
          -2 callsubr
          458 1198 rmoveto
          57 hlineto
          29 140 10 163 133 vvcurveto
          -77 hlineto
          -127 -2 -168 -17 -141 vhcurveto
          -447 -1116 50 callsubr
        </CharString>
        <CharString name="dcaron.sc">
          103 475 -58 callsubr
          59 callsubr
          171 -1608 166 callsubr
          9 callsubr
          72 callsubr
          1027 -5 callsubr
        </CharString>
        <CharString name="dcroat">
          -19 -46 callsubr
          -26 callgsubr
          31 callgsubr
          11 82 50 callsubr
        </CharString>
        <CharString name="dcroat.sc">
          103 25 callsubr
          -534 -171 -68 171 -568 vlineto
          -11 96 77 -4 81 hhcurveto
          72 callsubr
          494 272 68 -272 465 -5 callsubr
        </CharString>
        <CharString name="degree">
          -75 474 218 callsubr
          -106 100 157 157 106 99 147 147 105 -99 -157 -157 -105 -100 -147 hvcurveto
          endchar
        </CharString>
        <CharString name="degree.tf">
          40 531 218 callsubr
          -105 100 157 157 105 99 147 148 105 -99 -157 -157 -105 -100 -148 hvcurveto
          endchar
        </CharString>
        <CharString name="dieresis">
          -98 648 -6 callsubr
          -79 callsubr
          67 callsubr
          endchar
        </CharString>
        <CharString name="divide">
          17 520 1021 rmoveto
          42 30 28 44 43 -30 30 -42 -42 -30 -29 -44 -44 30 -28 42 hvcurveto
          -369 -300 rmoveto
          738 78 -738 hlineto
          369 -445 rmoveto
          42 30 28 43 44 -30 30 -42 -42 -30 -30 -44 -43 30 -28 42 hvcurveto
          endchar
        </CharString>
        <CharString name="divide.osf">
          17 520 820 rmoveto
          42 30 28 42 43 -30 29 -42 -42 -30 -29 -43 -43 30 -27 42 hvcurveto
          -369 -299 rmoveto
          738 77 -738 hlineto
          369 -442 rmoveto
          42 30 28 43 42 -30 30 -42 -42 -30 -30 -42 -43 30 -28 42 hvcurveto
          endchar
        </CharString>
        <CharString name="divide.tf">
          40 531 1021 rmoveto
          42 30 28 44 43 -30 30 -42 -42 -29 -29 -44 -44 30 -28 41 hvcurveto
          -368 -300 rmoveto
          737 78 -737 hlineto
          368 -445 rmoveto
          42 30 28 43 44 -30 30 -42 -42 -29 -30 -44 -43 30 -28 41 hvcurveto
          endchar
        </CharString>
        <CharString name="divide.tosf">
          40 531 820 rmoveto
          42 30 28 42 43 -30 29 -42 -42 -29 -29 -43 -43 30 -27 41 hvcurveto
          -368 -299 rmoveto
          737 77 -737 hlineto
          368 -442 rmoveto
          42 30 28 43 42 -30 30 -42 -42 -29 -30 -42 -43 30 -28 41 hvcurveto
          endchar
        </CharString>
        <CharString name="dollar">
          -73 406 -18 rmoveto
          9 10 0 9 hhcurveto
          -222 83 229 vlineto
          231 32 128 138 224 vvcurveto
          209 -118 120 -240 71 vhcurveto
          -61 18 rlineto
          -211 64 -80 81 170 vvcurveto
          192 120 108 251 94 92 -12 -30 95 vhcurveto
          84 vlineto
          27 -80 -107 13 -92 -8 -7 0 -7 hhcurveto
          222 -83 -228 vlineto
          -237 -31 -124 -139 -212 vvcurveto
          -206 118 -119 225 -68 vhcurveto
          62 -18 rlineto
          218 -66 88 -80 -175 vvcurveto
          -208 -127 -106 -248 -98 -106 17 39 -115 vhcurveto
          -84 vlineto
          -37 104 116 -17 96 hhcurveto
          endchar
        </CharString>
        <CharString name="dollar.tf">
          40 455 -18 rmoveto
          12 12 0 11 hhcurveto
          -222 83 229 vlineto
          255 31 142 138 225 vvcurveto
          218 -131 109 -262 71 vhcurveto
          -67 19 rlineto
          -239 65 -87 81 170 vvcurveto
          192 133 108 280 105 100 -12 -30 104 vhcurveto
          84 vlineto
          27 -88 -117 13 -100 -9 -10 0 -9 hhcurveto
          222 -83 -228 vlineto
          -263 -29 -135 -138 -215 vvcurveto
          -216 130 -110 246 -66 vhcurveto
          67 -19 rlineto
          247 -68 95 -78 -175 vvcurveto
          -208 -146 -106 -270 -109 -117 17 39 -124 vhcurveto
          -84 vlineto
          -37 113 127 -17 104 hhcurveto
          endchar
        </CharString>
        <CharString name="dong">
          -19 -46 callsubr
          -26 callgsubr
          -323 -174 -179 -399 -407 177 -130 211 hvcurveto
          11 82 rmoveto
          -173 -134 94 370 165 callsubr
          -354 -317 rmoveto
          712 76 -712 hlineto
          endchar
        </CharString>
        <CharString name="dong.tf">
          40 523 -18 rmoveto
          119 94 57 74 54 hvcurveto
          9 hlineto
          7 -113 rlineto
          77 1319 145 73 -145 224 -88 -224 -309 -73 309 -235 hlineto
          8 -50 -61 5 -55 hhcurveto
          -314 -170 -179 -399 -407 172 -130 206 hvcurveto
          11 82 rmoveto
          -168 -129 94 370 351 135 138 253 56 68 -7 -11 44 hvcurveto
          -779 vlineto
          -107 -58 -103 -49 -98 hhcurveto
          -344 -317 rmoveto
          693 76 -693 hlineto
          endchar
        </CharString>
        <CharString name="dotaccent">
          -98 463 1351 -59 callsubr
          endchar
        </CharString>
        <CharString name="dotbelowcomb">
          463 -322 rmoveto
          45 callsubr
          endchar
        </CharString>
        <CharString name="dotbelowcomb.case">
          463 -320 rmoveto
          42 31 26 44 43 -31 28 -42 -43 -30 -28 -43 -44 30 -26 43 hvcurveto
          endchar
        </CharString>
        <CharString name="dotbelowcomb.sc">
          463 -320 rmoveto
          42 31 26 44 43 -31 28 -42 -43 -30 -28 -43 -44 30 -26 43 hvcurveto
          endchar
        </CharString>
        <CharString name="dotlessi">
          -629 153 hmoveto
          88 1081 -88 hlineto
          endchar
        </CharString>
        <CharString name="e">
          -98 541 -18 -95 callsubr
          -91 callsubr
        </CharString>
        <CharString name="e.sc">
          -87 174 hmoveto
          706 177 callsubr
          hlineto
          endchar
        </CharString>
        <CharString name="eacute">
          -98 437 -55 callsubr
          -78 -1634 -95 callsubr
          -91 callsubr
        </CharString>
        <CharString name="eacute.sc">
          -87 502 112 callsubr
          -482 -1599 -89 callsubr
        </CharString>
        <CharString name="ebreve">
          -98 478 174 callsubr
          -58 -78 -115 hhcurveto
          -115 -59 181 callsubr
          63 -1291 -95 callsubr
          -91 callsubr
        </CharString>
        <CharString name="ebreve.sc">
          -87 543 1335 -32 callsubr
          -369 -1335 -89 callsubr
        </CharString>
        <CharString name="ecaron">
          -98 430 -77 callgsubr
          311 -1634 -95 callsubr
          -91 callsubr
        </CharString>
        <CharString name="ecaron.sc">
          -87 496 -58 callsubr
          -28 callsubr
          -104 -1599 -89 callsubr
        </CharString>
        <CharString name="ecircumflex">
          -98 232 23 callsubr
          111 -1634 -95 callsubr
          -91 callsubr
        </CharString>
        <CharString name="ecircumflex.sc">
          -87 278 -79 callgsubr
          -63 callsubr
          -322 -1599 -89 callsubr
        </CharString>
        <CharString name="edieresis">
          -98 661 1351 -83 callsubr
          74 callsubr
          -370 hmoveto
          45 callsubr
          250 -1369 -95 callsubr
          -91 callsubr
        </CharString>
        <CharString name="edieresis.sc">
          -87 746 1392 -93 callsubr
          -107 callsubr
          -106 callsubr
          -163 -1392 -89 callsubr
        </CharString>
        <CharString name="edotaccent">
          -98 476 -56 callsubr
          65 -1369 -95 callsubr
          -91 callsubr
        </CharString>
        <CharString name="edotaccent.sc">
          -87 542 1392 173 callsubr
          -368 -1392 -89 callsubr
        </CharString>
        <CharString name="egrave">
          -98 437 -65 callgsubr
          303 -1634 -95 callsubr
          -91 callsubr
        </CharString>
        <CharString name="egrave.sc">
          -87 502 1324 rmoveto
          79 hlineto
          -14 callsubr
          -157 -1599 -89 callsubr
        </CharString>
        <CharString name="eight">
          106 575 -18 rmoveto
          285 171 152 232 181 -85 112 -220 83 hvcurveto
          165 -34 callgsubr
          -175 -70 -108 -147 -185 vvcurveto
          -246 171 22 callgsubr
          115 111 211 211 127 -104 -191 -170 -80 -100 -183 -82 vhcurveto
          -12 3 -13 4 -13 4 rrcurveto
          -410 -410 rmoveto
          173 102 132 174 59 vhcurveto
          34 -13 38 -11 40 51 callgsubr
          -230 -258 -130 112 200 vhcurveto
          endchar
        </CharString>
        <CharString name="eight.dnom">
          -300 369 -148 -51 callsubr
          -100 callgsubr
        </CharString>
        <CharString name="eight.numr">
          -300 369 604 -51 callsubr
          -100 callgsubr
        </CharString>
        <CharString name="eight.osf">
          107 576 -18 rmoveto
          285 170 152 232 181 -84 112 -221 83 hvcurveto
          166 -34 callgsubr
          -176 -70 -108 -147 -185 vvcurveto
          -246 172 22 callgsubr
          114 111 212 211 126 -104 -191 -170 -79 -100 -183 -82 vhcurveto
          -12 3 -13 4 -13 4 rrcurveto
          -411 -410 rmoveto
          173 102 132 175 59 vhcurveto
          34 -13 37 -11 41 51 callgsubr
          -231 -258 -130 112 200 vhcurveto
          endchar
        </CharString>
        <CharString name="eight.tf">
          40 185 callsubr
        </CharString>
        <CharString name="eight.tosf">
          40 185 callsubr
        </CharString>
        <CharString name="ellipsis">
          121 197 -11 rmoveto
          38 callgsubr
          375 hmoveto
          43 30 64 callgsubr
          374 hmoveto
          43 31 29 45 44 -31 31 -43 -43 -30 -30 -45 -45 31 -29 42 hvcurveto
          endchar
        </CharString>
        <CharString name="emacron">
          -98 203 1388 rmoveto
          546 70 -546 hlineto
          338 -1476 -95 callsubr
          -91 callsubr
        </CharString>
        <CharString name="emacron.sc">
          -87 278 -22 callsubr
          -104 -1497 -89 callsubr
        </CharString>
        <CharString name="emdash">
          677 522 vmoveto
          1700 77 -1700 hlineto
          endchar
        </CharString>
        <CharString name="endash">
          -173 522 vmoveto
          850 77 -850 hlineto
          endchar
        </CharString>
        <CharString name="eng">
          -4 674 -461 rmoveto
          142 202 53 164 9 233 rrcurveto
          613 vlineto
          260 -131 86 -179 -122 -114 -45 -96 -87 vhcurveto
          -8 hlineto
          -8 125 rlineto
          -76 -1081 88 844 hlineto
          126 81 132 45 101 hhcurveto
          140 95 -65 -199 hvcurveto
          -584 vlineto
          -242 -53 -159 -126 -184 vhcurveto
          endchar
        </CharString>
        <CharString name="eng.sc">
          192 174 hmoveto
          85 1048 hlineto
          696 -1059 -9 -162 -45 -114 -96 -132 rlinecurve
          60 -42 125 163 43 135 7 189 rlinecurve
          1164 -84 -1048 vlineto
          -689 1048 rlineto
          -93 hlineto
          endchar
        </CharString>
        <CharString name="eogonek">
          -98 652 175 callsubr
          -78 -46 42 76 81 46 97 220 74 225 callsubr
          -406 158 -153 288 15 16 0 2 15 vhcurveto
          -85 -57 -39 -75 -84 vvcurveto
          -107 70 -65 119 vhcurveto
          -174 1423 rmoveto
          166 106 -105 -333 5 hvcurveto
          -568 hlineto
          334 6 118 104 167 hhcurveto
          endchar
        </CharString>
        <CharString name="eogonek.sc">
          -87 174 hmoveto
          595 hlineto
          -103 -72 -42 -74 -86 30 callgsubr
          177 callsubr
          vlineto
          endchar
        </CharString>
        <CharString name="equal">
          17 151 906 67 callgsubr
        </CharString>
        <CharString name="equal.osf">
          17 151 706 67 callgsubr
        </CharString>
        <CharString name="equal.tf">
          40 163 906 68 callgsubr
        </CharString>
        <CharString name="equal.tosf">
          40 163 706 68 callgsubr
        </CharString>
        <CharString name="estimated">
          581 801 -18 rmoveto
          262 184 109 261 178 hvcurveto
          -56 38 rlineto
          -243 -164 -168 -101 -236 hhcurveto
          -175 -172 84 129 -95 hvcurveto
          479 1140 vlineto
          464 -22 -272 296 -404 hhcurveto
          -410 -286 -312 -448 -432 298 -324 398 hvcurveto
          -442 820 rmoveto
          426 vlineto
          118 75 189 88 176 hhcurveto
          184 155 -73 -133 89 hvcurveto
          -426 vlineto
          endchar
        </CharString>
        <CharString name="eth">
          -28 499 -19 rmoveto
          242 157 174 418 263 -91 276 -135 217 hvcurveto
          205 34 -12 67 -234 -39 -64 90 -71 77 -75 58 rlinecurve
          -112 hlineto
          94 -75 77 -81 63 -84 rrcurveto
          -358 -61 12 -67 390 66 67 -102 49 -105 35 -105 rlinecurve
          72 -69 -84 23 -89 hhcurveto
          -242 -159 -155 -402 -403 160 -156 244 hvcurveto
          80 vmoveto
          -191 -121 114 368 362 122 112 188 189 122 -112 -368 -346 -124 -130 -185 hvcurveto
          endchar
        </CharString>
        <CharString name="eth.sc">
          103 25 callsubr
          -534 -171 -68 171 -568 vlineto
          -11 96 77 -4 81 hhcurveto
          72 callsubr
          494 272 68 -272 465 -5 callsubr
        </CharString>
        <CharString name="exclam">
          -588 188 330 rmoveto
          59 hlineto
          17 567 rlineto
          583 -94 -583 vlineto
          47 -908 rmoveto
          43 31 29 44 45 -31 30 -43 -43 -30 -30 -45 -44 30 -29 43 hvcurveto
          endchar
        </CharString>
        <CharString name="exclamdown">
          -588 217 1092 rmoveto
          -43 -30 -28 -45 -45 30 -31 43 43 31 31 45 44 -31 29 -43 hvcurveto
          -29 -341 rmoveto
          -18 -567 rlineto
          -564 94 564 vlineto
          -17 567 rlineto
          endchar
        </CharString>
        <CharString name="f">
          -397 -27 callsubr
          231 hlineto
          175 80 68 157 47 40 -5 -8 44 vhcurveto
          83 vlineto
          8 -42 -50 3 -39 hhcurveto
          -215 -109 -109 -218 hvcurveto
          -228 -206 -79 206 vlineto
          endchar
        </CharString>
        <CharString name="f.sc">
          -125 174 hmoveto
          88 565 522 80 -522 466 601 79 -689 hlineto
          endchar
        </CharString>
        <CharString name="f_i">
          -3 -27 callsubr
          -8 callsubr
          605 349 -59 callsubr
          -44 20 callsubr
        </CharString>
        <CharString name="f_j">
          -3 -27 callsubr
          -8 callsubr
          605 352 -59 callsubr
          -160 -1815 -68 callsubr
        </CharString>
        <CharString name="f_l">
          -4 -27 callsubr
          -8 callsubr
          561 -1002 rmoveto
          88 1616 -88 hlineto
          endchar
        </CharString>
        <CharString name="fi">
          -3 -27 callsubr
          -8 callsubr
          605 349 -59 callsubr
          -44 20 callsubr
        </CharString>
        <CharString name="figuredash">
          40 139 522 rmoveto
          785 77 -785 hlineto
          endchar
        </CharString>
        <CharString name="five">
          -96 401 -18 rmoveto
          305 166 148 275 269 -171 135 -370 23 hvcurveto
          -109 6 38 562 rlineto
          551 80 -632 hlineto
          -48 -719 173 -10 rlineto
          343 -20 136 -104 -224 vvcurveto
          -226 -130 -114 -252 79 callgsubr
          114 hhcurveto
          endchar
        </CharString>
        <CharString name="five.dnom">
          -300 312 -148 92 callsubr
        </CharString>
        <CharString name="five.numr">
          -300 312 604 92 callsubr
        </CharString>
        <CharString name="five.osf">
          -122 381 -418 rmoveto
          305 166 148 276 269 -171 135 -369 22 hvcurveto
          -109 7 38 562 rlineto
          550 80 -632 hlineto
          -47 -719 172 -10 rlineto
          343 -21 136 -104 -224 vvcurveto
          -226 -130 -114 -251 79 callgsubr
          113 hhcurveto
          endchar
        </CharString>
        <CharString name="five.tf">
          40 465 -18 rmoveto
          317 174 148 275 269 -179 135 -385 23 hvcurveto
          -118 6 40 562 rlineto
          577 80 -658 hlineto
          -49 -719 179 -10 rlineto
          358 -21 146 -103 -224 vvcurveto
          -226 -138 -114 -264 -110 -120 20 38 -107 vhcurveto
          -83 vlineto
          -37 99 118 -19 120 hhcurveto
          endchar
        </CharString>
        <CharString name="five.tosf">
          40 458 -418 rmoveto
          321 173 148 276 269 -180 135 -387 22 hvcurveto
          -119 7 39 562 rlineto
          583 80 -662 hlineto
          -52 -719 182 -10 rlineto
          361 -21 146 -104 -224 vvcurveto
          -226 -138 -114 -267 -112 -118 20 38 -110 vhcurveto
          -83 vlineto
          -37 100 120 -19 120 hhcurveto
          endchar
        </CharString>
        <CharString name="fiveeighths">
          637 312 604 rmoveto
          219 121 101 190 181 -120 91 -262 17 hvcurveto
          -69 4 25 357 rlineto
          383 71 -454 hlineto
          -33 -495 122 -8 rlineto
          236 -13 94 -66 -144 vvcurveto
          -142 -89 -72 -172 -74 -82 13 26 -72 vhcurveto
          -74 vlineto
          -24 67 80 -13 80 hhcurveto
          101 -740 8 callsubr
          140 -1764 -51 callsubr
          -98 callgsubr
        </CharString>
        <CharString name="fl">
          -4 -27 callsubr
          -8 callsubr
          561 -1002 rmoveto
          88 1616 -88 hlineto
          endchar
        </CharString>
        <CharString name="florin">
          -397 -18 -10 callgsubr
          81 67 155 47 36 -6 -7 49 vhcurveto
          83 vlineto
          8 -44 -49 3 -39 hhcurveto
          -214 -109 41 callgsubr
          -81 -67 -155 -47 -36 6 7 -49 vhcurveto
          -83 vlineto
          -8 44 49 -3 39 hhcurveto
          endchar
        </CharString>
        <CharString name="florin.tf">
          40 204 -10 callgsubr
          80 67 156 47 36 -6 -7 49 vhcurveto
          83 vlineto
          8 -45 -49 3 -39 hhcurveto
          -213 -110 41 callgsubr
          -80 -67 -155 -47 -36 6 7 -50 vhcurveto
          -83 vlineto
          -8 45 49 -3 39 hhcurveto
          endchar
        </CharString>
        <CharString name="four">
          49 50 378 rmoveto
          687 -378 85 378 208 79 -208 523 -70 hlineto
          -15 -523 -578 0 545 1023 -93 0 -561 -1051 rlineto
          endchar
        </CharString>
        <CharString name="four.dnom">
          -300 33 112 150 callsubr
        </CharString>
        <CharString name="four.numr">
          -300 56 callgsubr
        </CharString>
        <CharString name="four.osf">
          4 33 hmoveto
          686 -400 85 400 188 79 -188 523 -74 hlineto
          -11 -523 -577 0 543 1002 -94 0 -558 -1030 rlineto
          endchar
        </CharString>
        <CharString name="four.tf">
          40 50 378 rmoveto
          676 -378 86 378 207 79 -207 523 -70 hlineto
          -16 -523 -568 0 536 1023 -94 0 -550 -1051 rlineto
          endchar
        </CharString>
        <CharString name="four.tosf">
          40 56 hmoveto
          675 -400 86 400 187 79 -187 523 -74 hlineto
          -12 -523 -567 0 539 1002 -94 0 -553 -1030 rlineto
          endchar
        </CharString>
        <CharString name="fraction">
          -809 -311 -136 rmoveto
          82 hlineto
          753 1752 rlineto
          -81 hlineto
          endchar
        </CharString>
        <CharString name="franc">
          102 295 hmoveto
          89 350 314 79 -314 330 615 83 -615 555 708 83 -797 -1051 -218 -79 218 hlineto
          endchar
        </CharString>
        <CharString name="franc.tf">
          40 295 hmoveto
          89 350 243 79 -243 330 539 83 -539 555 632 83 -721 -1051 -218 -79 218 hlineto
          endchar
        </CharString>
        <CharString name="g">
          -19 432 -460 -50 callsubr
        </CharString>
        <CharString name="g.sc">
          57 689 -9 -38 callsubr
        </CharString>
        <CharString name="gbreve">
          -19 522 39 callsubr
          -90 -1733 -50 callsubr
        </CharString>
        <CharString name="gbreve.sc">
          57 594 1335 -60 callgsubr
          -14 hvcurveto
          -68 hlineto
          -151 11 93 -87 167 hhcurveto
          95 -1344 -38 callsubr
        </CharString>
        <CharString name="gcaron">
          -19 475 145 callsubr
          157 -2076 -50 callsubr
        </CharString>
        <CharString name="gcaron.sc">
          57 547 -58 callsubr
          59 callsubr
          360 -1608 -38 callsubr
        </CharString>
        <CharString name="gcircumflex">
          -19 277 -69 callsubr
          -82 callsubr
          -43 -2076 -50 callsubr
        </CharString>
        <CharString name="gcircumflex.sc">
          57 329 -78 callgsubr
          142 -1608 -38 callsubr
        </CharString>
        <CharString name="gdotaccent">
          -19 521 2 callgsubr
          -89 -1811 -50 callsubr
        </CharString>
        <CharString name="gdotaccent.sc">
          57 592 -21 callsubr
          97 -1401 -38 callsubr
        </CharString>
        <CharString name="germandbls">
          204 790 -18 rmoveto
          238 130 114 188 146 -64 94 -196 49 hvcurveto
          -115 28 rlineto
          -127 32 -52 65 106 vvcurveto
          119 83 94 201 62 36 -7 -8 39 vhcurveto
          12 44 13 84 73 vvcurveto
          310 -173 123 -230 -266 -163 -152 -331 vhcurveto
          -72 -206 -80 206 -1001 88 1147 vlineto
          301 130 109 214 182 141 -88 -268 -1 vhcurveto
          -37 -3 -38 -6 -35 vhcurveto
          3 -28 -27 1 -23 hhcurveto
          -245 -124 -125 -170 -143 68 -95 185 -46 6 callgsubr
          10 30 -97 vhcurveto
          -83 vlineto
          -26 80 83 -12 93 hhcurveto
          endchar
        </CharString>
        <CharString name="germandbls.sc">
          29 883 1104 rmoveto
          63 -89 -118 37 -140 hhcurveto
          -274 -128 -153 -273 hvcurveto
          -778 88 786 vlineto
          225 96 117 217 102 87 -20 -41 73 vhcurveto
          -349 -457 rlineto
          -50 vlineto
          8 53 45 3 50 hhcurveto
          189 104 -84 -158 -170 -98 -97 -191 -70 -77 14 32 -90 hvcurveto
          -79 vlineto
          -30 82 84 -13 77 hhcurveto
          237 134 127 215 214 -153 98 -200 -24 -19 -1 -2 -20 hvcurveto
          322 419 rlineto
          endchar
        </CharString>
        <CharString name="grave">
          -98 424 -80 callsubr
          -15 callsubr
          endchar
        </CharString>
        <CharString name="gravecomb">
          424 -80 callsubr
          -15 callsubr
          endchar
        </CharString>
        <CharString name="gravecomb.case">
          424 -98 callsubr
          -14 callsubr
          endchar
        </CharString>
        <CharString name="gravecomb.sc">
          424 -98 callsubr
          -14 callsubr
          endchar
        </CharString>
        <CharString name="greater">
          17 151 395 -5 callgsubr
        </CharString>
        <CharString name="greater.osf">
          17 151 195 -5 callgsubr
        </CharString>
        <CharString name="greater.tf">
          40 163 395 -4 callgsubr
        </CharString>
        <CharString name="greater.tosf">
          40 163 195 -4 callgsubr
        </CharString>
        <CharString name="greaterequal">
          17 151 408 rmoveto
          738 324 0 68 -738 325 0 -86 630 -273 -630 -273 rlineto
          -493 vmoveto
          738 79 -738 hlineto
          endchar
        </CharString>
        <CharString name="greaterequal.osf">
          17 151 217 rmoveto
          738 322 0 66 -738 322 0 -85 628 -270 -628 -271 rlineto
          -301 vmoveto
          27 callsubr
        </CharString>
        <CharString name="greaterequal.tf">
          40 163 408 rmoveto
          737 324 0 68 -737 325 0 -86 629 -273 -629 -273 rlineto
          -493 vmoveto
          737 79 -737 hlineto
          endchar
        </CharString>
        <CharString name="greaterequal.tosf">
          40 163 217 rmoveto
          737 322 0 66 -737 322 0 -85 627 -270 -627 -271 rlineto
          -301 vmoveto
          28 callsubr
        </CharString>
        <CharString name="guillemotleft">
          -200 -3 callgsubr
          541 -422 rmoveto
          91 hlineto
          -223 422 223 421 -91 0 -223 -421 rlineto
          endchar
        </CharString>
        <CharString name="guillemotright">
          -200 5 callgsubr
          96 -422 rmoveto
          91 hlineto
          223 422 -223 421 -91 0 223 -421 rlineto
          endchar
        </CharString>
        <CharString name="guilsinglleft">
          -518 -3 callgsubr
          endchar
        </CharString>
        <CharString name="guilsinglright">
          -518 5 callgsubr
          endchar
        </CharString>
        <CharString name="h">
          -39 callsubr
          37 callsubr
          659 -88 hlineto
          endchar
        </CharString>
        <CharString name="h.sc">
          134 callsubr
          140 callsubr
          endchar
        </CharString>
        <CharString name="hbar">
          -39 callsubr
          37 callsubr
          362 327 73 -327 224 -88 -224 -145 -73 145 hlineto
          endchar
        </CharString>
        <CharString name="hbar.sc">
          134 callsubr
          890 172 66 -172 234 -88 -234 -667 234 -88 -234 -171 -66 171 hlineto
          88 -238 rmoveto
          238 667 -238 vlineto
          endchar
        </CharString>
        <CharString name="hcircumflex">
          -4 252 1710 138 callsubr
          -63 callsubr
          -317 -1985 rmoveto
          88 844 hlineto
          37 callsubr
          659 -88 hlineto
          endchar
        </CharString>
        <CharString name="hcircumflex.sc">
          168 332 1324 -107 callgsubr
          88 0 -218 275 rlineto
          -92 hlineto
          -376 -1599 rmoveto
          88 571 667 -571 88 140 callsubr
          endchar
        </CharString>
        <CharString name="hookabovecomb">
          427 -3 callsubr
          48 callsubr
          55 callsubr
          endchar
        </CharString>
        <CharString name="hookabovecomb.case">
          428 1614 rmoveto
          69 -92 callgsubr
          -13 callsubr
          102 callsubr
          endchar
        </CharString>
        <CharString name="hookabovecomb.sc">
          428 1614 rmoveto
          69 -92 callgsubr
          -13 callsubr
          102 callsubr
          endchar
        </CharString>
        <CharString name="hungarumlaut">
          -98 569 101 callsubr
          endchar
        </CharString>
        <CharString name="hyphen">
          -281 -54 callgsubr
        </CharString>
        <CharString name="i">
          -629 197 -56 callsubr
          -44 20 callsubr
        </CharString>
        <CharString name="i.loclTRK">
          -629 197 -56 callsubr
          -44 20 callsubr
        </CharString>
        <CharString name="i.loclTRK.sc">
          -586 218 -21 callsubr
          -44 -1392 -17 callsubr
        </CharString>
        <CharString name="i.sc">
          -586 174 hmoveto
          88 1190 -88 hlineto
          endchar
        </CharString>
        <CharString name="i_j.loclNLD">
          -235 591 1354 -31 callsubr
          -394 -3 -31 callsubr
          -44 -1351 rmoveto
          88 1081 -88 hlineto
          278 -1542 -68 callsubr
        </CharString>
        <CharString name="i_j.loclNLD.sc">
          -150 174 hmoveto
          88 1190 -88 hlineto
          347 171 callsubr
        </CharString>
        <CharString name="iacute">
          -629 158 -55 callsubr
          -187 -83 callgsubr
        </CharString>
        <CharString name="iacute.sc">
          -586 179 -94 callsubr
          -103 callsubr
          -159 -84 callgsubr
        </CharString>
        <CharString name="iacute_j.loclNLD">
          -235 552 1264 -93 callgsubr
          -576 -358 -93 callgsubr
          -187 -1616 rmoveto
          88 1081 -88 hlineto
          278 -1542 -68 callsubr
        </CharString>
        <CharString name="iacute_j.loclNLD.sc">
          -150 179 -94 callsubr
          -103 callsubr
          283 -275 -16 callsubr
          -596 -1599 rmoveto
          88 1190 -88 hlineto
          347 171 callsubr
        </CharString>
        <CharString name="ibreve">
          -629 199 174 callsubr
          -59 -78 -114 hhcurveto
          -115 -60 78 172 -9 hvcurveto
          -68 hlineto
          -207 7 94 -109 151 hhcurveto
          -46 -1273 -12 callsubr
        </CharString>
        <CharString name="ibreve.sc">
          -586 220 1335 172 callsubr
          -133 -56 54 117 -14 hvcurveto
          -39 callgsubr
          -46 -1335 -17 callsubr
        </CharString>
        <CharString name="icircumflex">
          -629 -47 23 callsubr
          2 -83 callgsubr
        </CharString>
        <CharString name="icircumflex.sc">
          -586 -45 -78 callgsubr
          1 -84 callgsubr
        </CharString>
        <CharString name="idieresis">
          -629 382 1351 -83 callsubr
          74 callsubr
          -370 hmoveto
          45 callsubr
          141 20 callsubr
        </CharString>
        <CharString name="idieresis.sc">
          -586 423 1392 -93 callsubr
          -107 callsubr
          -106 callsubr
          160 -1392 -17 callsubr
        </CharString>
        <CharString name="igrave">
          -629 158 -65 callgsubr
          194 -83 callgsubr
        </CharString>
        <CharString name="igrave.sc">
          -586 179 -94 callsubr
          -70 callsubr
          166 -84 callgsubr
        </CharString>
        <CharString name="imacron">
          -629 -76 1388 rmoveto
          546 70 -546 hlineto
          229 -1458 -12 callsubr
        </CharString>
        <CharString name="imacron.sc">
          -586 -45 -22 callsubr
          219 -1497 -17 callsubr
        </CharString>
        <CharString name="infinity">
          598 422 432 186 callsubr
        </CharString>
        <CharString name="infinity.osf">
          598 422 232 186 callsubr
        </CharString>
        <CharString name="infinity.tf">
          40 264 431 189 callsubr
        </CharString>
        <CharString name="infinity.tosf">
          40 264 231 189 callsubr
        </CharString>
        <CharString name="integral">
          -475 128 233 callsubr
          -43 6 -46 hhcurveto
          -175 -96 -103 -199 18 hvcurveto
          126 -1359 rlineto
          -153 15 -59 -67 -129 hhcurveto
          -39 -30 4 12 -41 hvcurveto
          -79 vlineto
          -10 29 43 -6 46 hhcurveto
          endchar
        </CharString>
        <CharString name="integral.tf">
          40 384 233 callsubr
          -42 6 -46 hhcurveto
          -176 -96 -103 -199 19 hvcurveto
          126 -1359 rlineto
          -153 14 -58 -67 -130 hhcurveto
          -39 -29 4 12 -42 hvcurveto
          -79 vlineto
          -10 29 43 -6 46 hhcurveto
          endchar
        </CharString>
        <CharString name="iogonek">
          -629 197 -56 callsubr
          -3 -1755 rmoveto
          50 54 15 25 40 hvcurveto
          62 vlineto
          -28 -46 -48 -15 -49 hhcurveto
          -78 -96 callgsubr
          1081 -88 -1070 vlineto
          -103 -77 -45 -76 -90 vvcurveto
          -107 70 -65 119 vhcurveto
          endchar
        </CharString>
        <CharString name="iogonek.sc">
          -586 216 -404 rmoveto
          53 53 -47 callgsubr
          79 45 69 144 79 hvcurveto
          1190 -88 -1174 vlineto
          -120 -77 -47 -79 -92 vvcurveto
          -111 74 -61 135 vhcurveto
          endchar
        </CharString>
        <CharString name="itilde">
          -629 325 1372 rmoveto
          62 49 -99 callgsubr
          -58 -79 -80 78 -99 hhcurveto
          -61 -49 -97 callgsubr
          58 79 80 -78 98 hhcurveto
          -172 -1372 -12 callsubr
        </CharString>
        <CharString name="itilde.sc">
          -586 357 1400 -100 callsubr
          -62 callsubr
          -183 -1400 -17 callsubr
        </CharString>
        <CharString name="j">
          -629 197 1354 -31 callsubr
          -160 -1815 -68 callsubr
        </CharString>
        <CharString name="j.sc">
          -586 84 -275 rmoveto
          125 163 46 -74 callgsubr
          -67 callgsubr
        </CharString>
        <CharString name="jcircumflex">
          -629 -47 1264 41 callsubr
          -114 -2080 -68 callsubr
        </CharString>
        <CharString name="jcircumflex.sc">
          -586 -45 -78 callgsubr
          -89 -1874 rmoveto
          125 163 46 -74 callgsubr
          -67 callgsubr
        </CharString>
        <CharString name="k">
          155 callsubr
          1024 -88 hlineto
          endchar
        </CharString>
        <CharString name="k.sc">
          230 callsubr
          endchar
        </CharString>
        <CharString name="kgreenlandic">
          155 callsubr
          489 -88 hlineto
          endchar
        </CharString>
        <CharString name="l">
          58 callsubr
          endchar
        </CharString>
        <CharString name="l.sc">
          0 callsubr
          endchar
        </CharString>
        <CharString name="lacute">
          -629 158 1710 87 callsubr
          -97 hlineto
          -158 -1985 rmoveto
          88 1616 -88 hlineto
          endchar
        </CharString>
        <CharString name="lacute.sc">
          -157 180 1324 87 callsubr
          -97 hlineto
          -159 -1599 rmoveto
          682 80 -594 1110 -88 hlineto
          endchar
        </CharString>
        <CharString name="lcaron">
          58 callsubr
          178 -436 19 callsubr
          -71 callgsubr
        </CharString>
        <CharString name="lcaron.sc">
          0 callsubr
          377 -476 19 callsubr
          -72 callgsubr
        </CharString>
        <CharString name="ldot">
          -603 153 hmoveto
          88 1616 -88 hlineto
          246 -895 -31 callsubr
          endchar
        </CharString>
        <CharString name="ldot.sc">
          0 callsubr
          455 -627 rmoveto
          43 28 27 43 43 -28 29 -43 -43 -29 -29 -43 -43 29 -27 43 hvcurveto
          endchar
        </CharString>
        <CharString name="less">
          17 889 395 7 callgsubr
        </CharString>
        <CharString name="less.osf">
          17 889 195 7 callgsubr
        </CharString>
        <CharString name="less.tf">
          40 900 395 8 callgsubr
        </CharString>
        <CharString name="less.tosf">
          40 900 195 8 callgsubr
        </CharString>
        <CharString name="lessequal">
          17 889 57 callgsubr
          -738 -325 rlineto
          -68 vlineto
          -732 vmoveto
          738 79 -738 hlineto
          endchar
        </CharString>
        <CharString name="lessequal.osf">
          17 889 58 callgsubr
          -738 -322 rlineto
          -66 vlineto
          -539 vmoveto
          27 callsubr
        </CharString>
        <CharString name="lessequal.tf">
          40 900 57 callgsubr
          -737 -325 rlineto
          -68 vlineto
          -732 vmoveto
          737 79 -737 hlineto
          endchar
        </CharString>
        <CharString name="lessequal.tosf">
          40 900 58 callgsubr
          -737 -322 rlineto
          -66 vlineto
          -539 vmoveto
          28 callsubr
        </CharString>
        <CharString name="lira">
          122 78 hmoveto
          1003 80 -697 461 506 75 -506 267 506 75 -506 118 -32 callgsubr
          13 callgsubr
        </CharString>
        <CharString name="lira.tf">
          40 78 hmoveto
          970 80 -664 461 474 75 -474 267 474 75 -474 118 -31 callgsubr
          13 callgsubr
        </CharString>
        <CharString name="logicalnot">
          264 1062 192 rmoveto
          84 607 -995 -78 911 hlineto
          endchar
        </CharString>
        <CharString name="logicalnot.osf">
          275 1074 hmoveto
          83 600 -1006 -79 923 hlineto
          endchar
        </CharString>
        <CharString name="logicalnot.tf">
          40 944 192 rmoveto
          84 607 -995 -78 911 hlineto
          endchar
        </CharString>
        <CharString name="logicalnot.tosf">
          40 951 hmoveto
          83 600 -1005 -79 922 hlineto
          endchar
        </CharString>
        <CharString name="lozenge">
          40 226 callsubr
        </CharString>
        <CharString name="lozenge.osf">
          40 227 callsubr
        </CharString>
        <CharString name="lozenge.tf">
          40 226 callsubr
        </CharString>
        <CharString name="lozenge.tosf">
          40 227 callsubr
        </CharString>
        <CharString name="lslash">
          -623 156 hmoveto
          88 708 hlineto
          127 111 0 92 -127 -111 rlineto
          816 -88 -894 vlineto
          -130 -114 0 -92 130 114 rlineto
          endchar
        </CharString>
        <CharString name="lslash.sc">
          -157 174 hmoveto
          682 80 -594 541 hlineto
          239 191 0 84 -239 -190 rlineto
          484 -88 -555 vlineto
          -153 -122 0 -85 153 122 rlineto
          endchar
        </CharString>
        <CharString name="m">
          194 callsubr
          endchar
        </CharString>
        <CharString name="m.sc">
          221 callsubr
          endchar
        </CharString>
        <CharString name="macron">
          -98 189 -40 callsubr
          endchar
        </CharString>
        <CharString name="minus">
          17 151 721 rmoveto
          27 callsubr
        </CharString>
        <CharString name="minus.osf">
          17 151 521 rmoveto
          27 callsubr
        </CharString>
        <CharString name="minus.tf">
          40 163 721 rmoveto
          28 callsubr
        </CharString>
        <CharString name="minus.tosf">
          40 163 521 rmoveto
          28 callsubr
        </CharString>
        <CharString name="minute">
          -651 135 callsubr
          endchar
        </CharString>
        <CharString name="multiply">
          -57 180 402 217 callsubr
        </CharString>
        <CharString name="multiply.osf">
          -57 180 202 217 callsubr
        </CharString>
        <CharString name="multiply.tf">
          40 228 402 216 callsubr
        </CharString>
        <CharString name="multiply.tosf">
          40 228 202 216 callsubr
        </CharString>
        <CharString name="n">
          -39 callsubr
          -10 callsubr
          endchar
        </CharString>
        <CharString name="n.sc">
          192 174 hmoveto
          85 -7 callgsubr
          endchar
        </CharString>
        <CharString name="nacute">
          -4 477 -80 callsubr
          200 355 rlineto
          -95 hlineto
          -506 -1616 rmoveto
          65 callsubr
        </CharString>
        <CharString name="nacute.sc">
          192 568 -94 callsubr
          -53 callsubr
          -547 -1599 rmoveto
          85 -7 callgsubr
          endchar
        </CharString>
        <CharString name="napostrophe">
          -4 51 1351 88 callsubr
          -28 -38 -41 28 -28 43 vhcurveto
          2 hlineto
          -3 -39 -9 -43 -22 -56 rrcurveto
          102 -1351 rmoveto
          65 callsubr
        </CharString>
        <CharString name="ncaron">
          -4 470 145 callsubr
          -117 -1616 rmoveto
          65 callsubr
        </CharString>
        <CharString name="ncaron.sc">
          192 561 -58 callsubr
          -28 callsubr
          -169 -1599 rmoveto
          85 -7 callgsubr
          endchar
        </CharString>
        <CharString name="nine">
          13 452 1498 rmoveto
          -222 -174 -138 -290 -287 179 -136 242 132 128 46 78 81 hvcurveto
          -1 vlineto
          -514 -163 -193 -300 -82 -84 14 29 -70 vhcurveto
          -83 vlineto
          -29 69 85 -12 80 hhcurveto
          356 198 230 576 537 -190 173 -265 hvcurveto
          -308 -424 rmoveto
          244 136 100 170 205 147 -126 -429 15 vhcurveto
          -98 -86 -132 -38 -114 hhcurveto
          -199 -142 101 246 hvcurveto
          endchar
        </CharString>
        <CharString name="nine.dnom">
          -300 250 -148 90 callsubr
        </CharString>
        <CharString name="nine.numr">
          -300 250 604 90 callsubr
        </CharString>
        <CharString name="nine.osf">
          14 368 -418 rmoveto
          356 198 230 577 537 -190 173 -266 -221 -174 -138 -290 -287 179 -137 241 133 128 46 78 80 hvcurveto
          -515 -162 -193 -301 -81 -84 14 29 -70 vhcurveto
          -83 vlineto
          -29 68 86 -12 80 hhcurveto
          -209 1093 rmoveto
          244 136 100 170 205 147 -125 -431 14 vhcurveto
          -97 -85 -132 -39 -114 hhcurveto
          -199 -142 102 246 hvcurveto
          endchar
        </CharString>
        <CharString name="nine.tf">
          40 368 -18 rmoveto
          351 197 230 576 14 callgsubr
          -136 239 131 125 45 78 -17 callgsubr
          1092 81 callgsubr
          -430 14 vhcurveto
          -97 -84 -131 -38 -111 hhcurveto
          -197 -140 101 246 hvcurveto
          endchar
        </CharString>
        <CharString name="nine.tosf">
          40 368 -418 rmoveto
          351 197 230 577 14 callgsubr
          -137 239 131 125 46 77 -17 callgsubr
          1093 81 callgsubr
          -431 14 vhcurveto
          -96 -84 -131 -39 -111 hhcurveto
          -197 -140 102 246 hvcurveto
          endchar
        </CharString>
        <CharString name="notequal">
          17 224 390 100 callsubr
          11 callgsubr
        </CharString>
        <CharString name="notequal.osf">
          17 224 190 100 callsubr
          11 callgsubr
        </CharString>
        <CharString name="notequal.tf">
          40 235 390 100 callsubr
          12 callgsubr
        </CharString>
        <CharString name="notequal.tosf">
          40 235 190 100 callsubr
          12 callgsubr
        </CharString>
        <CharString name="ntilde">
          -4 644 1372 rmoveto
          61 50 -99 callgsubr
          -59 -6 callgsubr
          -491 -1372 rmoveto
          65 callsubr
        </CharString>
        <CharString name="ntilde.sc">
          192 745 1400 rmoveto
          66 49 -41 callgsubr
          -62 -89 -81 78 -108 hhcurveto
          -66 -49 85 callsubr
          44 24 -62 callsubr
          -571 -1400 rmoveto
          85 -7 callgsubr
          endchar
        </CharString>
        <CharString name="numbersign">
          40 197 callsubr
        </CharString>
        <CharString name="numbersign.tf">
          40 197 callsubr
        </CharString>
        <CharString name="o">
          73 callsubr
          -104 callsubr
          -105 callsubr
          -99 callsubr
        </CharString>
        <CharString name="o.sc">
          106 564 -14 -96 callsubr
        </CharString>
        <CharString name="oacute">
          -28 459 -80 callsubr
          199 355 rlineto
          -95 hlineto
          -143 -72 callsubr
          -104 callsubr
          -105 callsubr
          -99 callsubr
        </CharString>
        <CharString name="oacute.sc">
          106 525 -94 callsubr
          -103 callsubr
          -115 -1613 -96 callsubr
        </CharString>
        <CharString name="obreve">
          -28 499 39 callsubr
          -2 -1291 -81 callsubr
          -104 callsubr
          -105 callsubr
          -99 callsubr
        </CharString>
        <CharString name="obreve.sc">
          106 566 1335 -60 callgsubr
          143 callsubr
          -2 -1349 -96 callsubr
        </CharString>
        <CharString name="ocircumflex">
          -28 254 -69 callsubr
          164 302 165 7 callsubr
          45 -72 callsubr
          -104 callsubr
          -105 callsubr
          -99 callsubr
        </CharString>
        <CharString name="ocircumflex.sc">
          106 301 1324 -94 callgsubr
          46 -1613 -96 callsubr
        </CharString>
        <CharString name="odieresis">
          -28 683 1351 rmoveto
          122 callsubr
          -79 callsubr
          67 callsubr
          185 -1369 -81 callsubr
          -104 callsubr
          -105 callsubr
          -99 callsubr
        </CharString>
        <CharString name="odieresis.sc">
          106 769 1392 -93 callsubr
          -107 callsubr
          -106 callsubr
          204 -1406 -96 callsubr
        </CharString>
        <CharString name="oe">
          600 492 -18 rmoveto
          169 125 80 189 58 hvcurveto
          -191 61 135 -78 203 178 callsubr
          -124 112 330 -6 hvcurveto
          649 36 hlineto
          406 -141 152 -223 -160 -119 -81 -195 -53 vhcurveto
          194 -58 -126 80 -170 hhcurveto
          -238 -159 -155 -402 -105 callsubr
          237 hvcurveto
          684 1039 rmoveto
          164 106 -101 -339 6 hvcurveto
          -559 hlineto
          335 5 114 105 164 hhcurveto
          -682 -960 rmoveto
          -186 -56 callgsubr
          185 185 121 -112 -369 -362 -121 -114 -185 hvcurveto
          endchar
        </CharString>
        <CharString name="oe.sc">
          557 681 -8 rmoveto
          90 70 8 67 hhcurveto
          616 79 -594 492 506 79 -506 461 586 79 -615 hlineto
          -63 -80 10 -92 hhcurveto
          -368 -197 -191 -415 -420 204 -182 376 hvcurveto
          -7 79 rmoveto
          -316 -164 150 373 370 154 157 314 62 58 -3 -7 61 hvcurveto
          -1032 vlineto
          -6 -52 -54 -2 -63 hhcurveto
          endchar
        </CharString>
        <CharString name="ogonek">
          -98 411 175 callsubr
          -79 -96 callgsubr
          39 callgsubr
        </CharString>
        <CharString name="ograve">
          -28 459 -80 callsubr
          -182 355 rlineto
          -94 hlineto
          237 -72 callsubr
          -104 callsubr
          -105 callsubr
          -99 callsubr
        </CharString>
        <CharString name="ograve.sc">
          106 525 -94 callsubr
          -70 callsubr
          210 -1613 -96 callsubr
        </CharString>
        <CharString name="ohorn">
          73 callsubr
          33 callsubr
        </CharString>
        <CharString name="ohorn.sc">
          106 564 -14 29 callsubr
        </CharString>
        <CharString name="ohungarumlaut">
          -28 604 101 callsubr
          63 -72 callsubr
          -104 callsubr
          -105 callsubr
          -99 callsubr
        </CharString>
        <CharString name="ohungarumlaut.sc">
          106 671 1324 -73 callgsubr
          -68 callgsubr
          -1613 -96 callsubr
        </CharString>
        <CharString name="omacron">
          -28 224 -40 callsubr
          273 -1476 -81 callsubr
          -104 callsubr
          -105 callsubr
          -99 callsubr
        </CharString>
        <CharString name="omacron.sc">
          106 301 -22 callsubr
          263 -1511 -96 callsubr
        </CharString>
        <CharString name="one">
          -400 353 hmoveto
          88 1484 -53 hlineto
          -367 -273 0 -94 332 246 rlineto
          endchar
        </CharString>
        <CharString name="one.dnom">
          -300 142 -136 161 callsubr
          endchar
        </CharString>
        <CharString name="one.numr">
          -300 142 616 161 callsubr
          endchar
        </CharString>
        <CharString name="one.osf">
          -433 339 hmoveto
          88 1087 -52 hlineto
          -368 -248 0 -92 332 225 rlineto
          endchar
        </CharString>
        <CharString name="one.tf">
          40 215 hmoveto
          740 81 -319 1403 -53 hlineto
          -380 -283 0 -94 344 256 rlineto
          -1282 -332 vlineto
          endchar
        </CharString>
        <CharString name="one.tosf">
          40 207 hmoveto
          752 80 -332 1007 -52 hlineto
          -381 -258 0 -91 345 234 rlineto
          -892 -332 vlineto
          endchar
        </CharString>
        <CharString name="oneeighth">
          95 callsubr
          140 -1764 -51 callsubr
          -98 callgsubr
        </CharString>
        <CharString name="onehalf">
          95 callsubr
          -137 -1752 32 callsubr
        </CharString>
        <CharString name="onequarter">
          95 callsubr
          -196 -1504 150 callsubr
        </CharString>
        <CharString name="ordfeminine">
          -243 326 596 rmoveto
          102 93 40 73 59 hvcurveto
          6 hlineto
          7 -99 rlineto
          71 590 hlineto
          220 -107 73 -200 -76 -90 -14 -25 -69 vhcurveto
          -78 vlineto
          28 82 80 13 65 hhcurveto
          152 81 -47 -165 hvcurveto
          -101 vlineto
          -212 -22 rlineto
          -209 -21 -90 -85 -147 vvcurveto
          -145 101 -88 154 vhcurveto
          -169 242 rmoveto
          105 65 56 151 16 vhcurveto
          209 21 rlineto
          -242 vlineto
          -90 -66 -91 -34 -82 hhcurveto
          -122 -64 57 111 hvcurveto
          endchar
        </CharString>
        <CharString name="ordmasculine">
          -181 421 596 rmoveto
          206 138 131 319 319 -138 4 callgsubr
          74 vmoveto
          -156 -102 90 286 286 102 86 156 74 callgsubr
        </CharString>
        <CharString name="oslash">
          -28 176 -1 192 callsubr
        </CharString>
        <CharString name="oslash.sc">
          106 185 hmoveto
          191 callsubr
        </CharString>
        <CharString name="oslashacute">
          -28 456 -80 callsubr
          199 355 rlineto
          -95 hlineto
          -461 -1617 192 callsubr
        </CharString>
        <CharString name="oslashacute.sc">
          106 525 -94 callsubr
          -103 callsubr
          -494 -1599 rmoveto
          191 callsubr
        </CharString>
        <CharString name="otilde">
          -28 626 1372 -77 callsubr
          -129 77 callsubr
          -104 callsubr
          -105 callsubr
          -99 callsubr
        </CharString>
        <CharString name="otilde.sc">
          106 703 1400 -100 callsubr
          -44 callsubr
          -1414 -96 callsubr
        </CharString>
        <CharString name="p">
          -15 callgsubr
          -176 130 -212 -122 -97 -57 -74 -57 hvcurveto
          -8 hlineto
          -7 115 rlineto
          -77 hlineto
          264 -1019 rmoveto
          -59 -71 7 11 -46 hvcurveto
          780 vlineto
          106 61 106 49 102 hhcurveto
          174 61 callgsubr
        </CharString>
        <CharString name="p.sc">
          -6 174 hmoveto
          88 410 hlineto
          -4 52 54 -3 57 hhcurveto
          342 156 139 260 275 -161 125 -307 -101 -91 -10 -16 -89 hvcurveto
          254 -695 rmoveto
          -59 -53 3 7 -54 hvcurveto
          619 vlineto
          9 61 64 5 72 hhcurveto
          253 122 -98 -226 -215 -124 -104 -282 hvcurveto
          endchar
        </CharString>
        <CharString name="paragraph">
          106 667 hmoveto
          81 1480 hlineto
          8 -73 -83 6 -87 hhcurveto
          -272 -140 -153 -339 -320 135 -172 305 49 38 3 5 47 hvcurveto
          210 -518 rmoveto
          80 1480 -80 hlineto
          endchar
        </CharString>
        <CharString name="parenleft">
          -429 444 -440 rmoveto
          94 hlineto
          -223 310 -97 347 371 vvcurveto
          371 97 347 223 310 vhcurveto
          -94 hlineto
          -221 -302 -98 -348 -378 vvcurveto
          -378 98 -348 221 -302 vhcurveto
          endchar
        </CharString>
        <CharString name="parenleft.sc">
          -429 363 -240 rmoveto
          91 hlineto
          -153 248 -83 304 313 vvcurveto
          315 84 293 154 247 vhcurveto
          -91 hlineto
          -154 -240 -86 -303 -312 vvcurveto
          -322 84 -301 154 -242 vhcurveto
          endchar
        </CharString>
        <CharString name="parenright">
          -429 56 -440 rmoveto
          94 hlineto
          221 302 98 348 378 vvcurveto
          378 -98 348 -221 302 vhcurveto
          -94 hlineto
          223 -310 97 -347 -371 vvcurveto
          -371 -97 -347 -223 -310 vhcurveto
          endchar
        </CharString>
        <CharString name="parenright.sc">
          -429 231 -240 rmoveto
          154 242 84 301 322 vvcurveto
          312 -86 303 -154 240 vhcurveto
          -91 hlineto
          154 -247 84 -293 -315 vvcurveto
          -313 -83 -304 -153 -248 vhcurveto
          endchar
        </CharString>
        <CharString name="partialdiff">
          13 452 -18 rmoveto
          265 190 173 537 576 -198 230 -356 -80 -85 -12 -29 -69 hvcurveto
          -83 vlineto
          29 70 84 14 82 hhcurveto
          275 160 -162 -425 24 hvcurveto
          76 -80 -127 45 -130 hhcurveto
          -242 -179 -137 -345 -349 174 -138 222 hvcurveto
          -308 483 rmoveto
          304 142 102 199 114 134 24 callgsubr
          -170 -136 100 303 vhcurveto
          endchar
        </CharString>
        <CharString name="partialdiff.tf">
          40 500 -18 rmoveto
          266 190 173 537 576 -199 230 -355 -80 -86 -12 -29 -69 hvcurveto
          -83 vlineto
          29 70 85 14 81 hhcurveto
          276 160 -162 -425 24 hvcurveto
          76 -81 -126 45 -131 hhcurveto
          -241 -179 -137 -345 -349 173 -138 222 hvcurveto
          -308 483 rmoveto
          304 143 102 199 114 133 24 callgsubr
          -169 -137 100 303 vhcurveto
          endchar
        </CharString>
        <CharString name="percent">
          634 198 callsubr
          850 -669 rmoveto
          235 callsubr
          74 vmoveto
          -23 callgsubr
        </CharString>
        <CharString name="percent.tf">
          40 345 838 rmoveto
          170 98 130 200 200 -98 223 callsubr
          -163 -68 -96 -125 hvcurveto
          -284 -609 rmoveto
          940 792 0 92 -940 -792 rlineto
          656 -408 rmoveto
          170 97 130 200 200 -97 223 callsubr
          -164 -68 -95 -125 hvcurveto
          endchar
        </CharString>
        <CharString name="period">
          -628 197 -11 rmoveto
          38 callgsubr
          endchar
        </CharString>
        <CharString name="period.tf">
          -492 266 -11 rmoveto
          42 31 64 callgsubr
          endchar
        </CharString>
        <CharString name="periodcentered">
          -628 197 485 42 callsubr
        </CharString>
        <CharString name="periodcentered.CAT">
          -630 197 498 rmoveto
          43 29 28 43 44 -29 30 -43 -44 -29 -30 -44 -43 29 -28 44 hvcurveto
          endchar
        </CharString>
        <CharString name="periodcentered.tf">
          -492 266 485 rmoveto
          42 31 28 45 45 -30 30 -43 -43 -31 -30 -45 -45 31 -28 43 hvcurveto
          endchar
        </CharString>
        <CharString name="perthousand">
          1337 198 callsubr
          1554 -669 rmoveto
          178 122 121 340 339 -123 121 -177 -178 -122 -121 -339 -340 122 -121 178 hvcurveto
          -704 hmoveto
          235 callsubr
          704 74 rmoveto
          -130 -89 93 295 293 89 48 callgsubr
          -704 hmoveto
          -23 callgsubr
        </CharString>
        <CharString name="perthousand.tf">
          40 347 868 rmoveto
          170 99 128 187 187 -99 128 -170 -170 -99 -128 -187 -187 99 -128 170 hvcurveto
          69 vmoveto
          -125 -68 98 150 148 68 97 125 126 68 -98 -151 -149 -68 -95 -126 hvcurveto
          -286 -316 rmoveto
          940 312 0 69 -940 -311 rlineto
          245 -709 rmoveto
          106 74 54 97 36 hvcurveto
          -97 36 74 -54 106 hhcurveto
          149 97 114 201 200 -97 115 -149 -106 -74 -55 -96 -36 hvcurveto
          96 -36 -74 55 -106 hhcurveto
          -149 -98 -115 -200 -201 98 -114 149 hvcurveto
          4 68 rmoveto
          -109 -66 85 164 162 66 82 109 108 66 -84 -164 -163 -66 -82 -108 hvcurveto
          425 hmoveto
          -110 -65 85 164 162 65 82 110 108 66 -84 -164 -163 -66 -82 -108 hvcurveto
          endchar
        </CharString>
        <CharString name="peseta">
          1355 172 hmoveto
          89 518 hlineto
          -5 67 53 -3 60 hhcurveto
          389 177 172 320 hvcurveto
          183 -699 hlineto
          -229 113 -92 188 45 48 6 10 45 vhcurveto
          83 vlineto
          -11 -47 -41 -6 -40 hhcurveto
          -147 -76 65 188 hvcurveto
          685 330 79 -330 399 -76 vlineto
          -12 -399 rlineto
          -186 hlineto
          284 -28 -180 129 -316 hhcurveto
          -101 -100 -12 -19 -107 hvcurveto
          273 -871 rmoveto
          -75 -45 3 7 -64 hvcurveto
          790 vlineto
          14 78 72 16 callgsubr
          1493 -610 rmoveto
          241 130 114 188 146 -65 94 -195 49 53 callgsubr
          201 75 61 -7 -21 80 vhcurveto
          82 vlineto
          17 -69 -68 9 -81 hhcurveto
          -246 -124 -126 -170 -64 callgsubr
          30 -97 vhcurveto
          -83 vlineto
          -26 80 83 -13 90 hhcurveto
          endchar
        </CharString>
        <CharString name="peseta.tf">
          40 99 360 rmoveto
          81 435 hlineto
          -6 51 52 -3 68 hhcurveto
          326 151 112 241 238 -146 117 -297 -85 -93 -9 -18 -108 hvcurveto
          249 -605 rmoveto
          -68 -41 2 6 -59 hvcurveto
          529 vlineto
          13 80 64 7 63 hhcurveto
          245 112 -89 -193 -196 -115 -79 -281 hvcurveto
          205 -880 rmoveto
          29 26 4 8 28 hvcurveto
          68 vlineto
          -9 -34 -22 -3 -22 hhcurveto
          -66 -33 40 77 hvcurveto
          365 175 64 -175 134 -65 vlineto
          -10 -134 rlineto
          -106 -64 106 -386 hlineto
          -103 60 -61 109 vhcurveto
          265 hmoveto
          124 72 65 114 102 -48 59 -106 34 hvcurveto
          -95 29 -25 27 65 vvcurveto
          63 48 40 80 41 37 -7 -14 36 vhcurveto
          69 vlineto
          12 -30 -40 6 -43 hhcurveto
          -125 -76 -66 -107 -98 47 -50 116 -36 hvcurveto
          82 -26 30 -34 -70 vvcurveto
          -71 -44 -41 -80 -49 -43 8 20 -48 vhcurveto
          -69 vlineto
          -16 38 45 -8 56 hhcurveto
          endchar
        </CharString>
        <CharString name="pi">
          171 210 -2 rmoveto
          88 1004 483 hlineto
          4 -715 rlineto
          -220 2 103 -85 172 hhcurveto
          40 48 6 9 37 hvcurveto
          83 vlineto
          -10 -40 -39 -6 -36 hhcurveto
          -134 -65 59 178 hvcurveto
          701 206 79 -1075 -79 206 vlineto
          endchar
        </CharString>
        <CharString name="pi.tf">
          40 172 -2 rmoveto
          87 1004 432 hlineto
          3 -720 rlineto
          -215 2 90 -85 151 hhcurveto
          41 47 6 9 38 hvcurveto
          83 vlineto
          -10 -40 -40 -6 -35 hhcurveto
          -114 -53 59 176 hvcurveto
          703 174 79 -955 -79 172 vlineto
          endchar
        </CharString>
        <CharString name="plus">
          17 478 374 9 callgsubr
        </CharString>
        <CharString name="plus.osf">
          17 478 174 9 callgsubr
        </CharString>
        <CharString name="plus.tf">
          40 490 374 10 callgsubr
        </CharString>
        <CharString name="plus.tosf">
          40 490 174 10 callgsubr
        </CharString>
        <CharString name="plusminus">
          17 478 320 rmoveto
          84 347 327 79 -327 346 -84 -346 -327 -79 327 hlineto
          -327 -667 rmoveto
          738 79 -738 hlineto
          endchar
        </CharString>
        <CharString name="plusminus.osf">
          17 478 188 rmoveto
          84 343 327 78 -327 343 -84 -343 -327 -78 327 hlineto
          -327 -531 rmoveto
          27 callsubr
        </CharString>
        <CharString name="plusminus.tf">
          40 490 320 rmoveto
          83 347 327 79 -327 346 -83 -346 -327 -79 327 hlineto
          -327 -667 rmoveto
          737 79 -737 hlineto
          endchar
        </CharString>
        <CharString name="plusminus.tosf">
          40 490 188 rmoveto
          83 343 327 78 -327 343 -83 -343 -327 -78 327 hlineto
          -327 -531 rmoveto
          28 callsubr
        </CharString>
        <CharString name="product">
          217 172 -440 rmoveto
          89 1836 719 -1836 88 1920 -896 hlineto
          endchar
        </CharString>
        <CharString name="product.tf">
          40 123 -440 rmoveto
          89 1836 639 -1836 88 1920 -816 hlineto
          endchar
        </CharString>
        <CharString name="q">
          -19 764 -440 rmoveto
          88 1496 hlineto
          50 callgsubr
          175 -130 207 126 97 57 68 57 hvcurveto
          7 hlineto
          -272 -43 rmoveto
          -171 -134 94 371 350 60 callgsubr
          -101 -61 -108 -49 -103 hhcurveto
          endchar
        </CharString>
        <CharString name="q.sc">
          106 992 -164 rmoveto
          13 81 -136 12 -153 22 -128 42 rlinecurve
          288 1 151 205 395 vvcurveto
          441 -183 169 -280 82 callsubr
          -492 207 -185 684 -81 vhcurveto
          -428 229 rmoveto
          168 callsubr
        </CharString>
        <CharString name="question">
          -207 331 315 rmoveto
          60 hlineto
          11 374 rlineto
          265 114 89 126 205 vvcurveto
          233 -147 131 -270 -105 -113 -19 -35 -81 vhcurveto
          -82 vlineto
          38 96 95 17 104 hhcurveto
          218 114 -97 -188 -181 -88 -112 -263 -98 hvcurveto
          45 -752 rmoveto
          45 28 31 42 45 -30 30 -43 -43 -31 -30 -45 -42 31 -31 43 hvcurveto
          endchar
        </CharString>
        <CharString name="questiondown">
          -207 455 1092 rmoveto
          -45 -28 -31 -42 -44 30 -31 43 43 31 30 45 43 -31 30 -43 hvcurveto
          30 -325 rmoveto
          -60 hlineto
          -11 -375 rlineto
          -265 -114 -89 -125 -198 vvcurveto
          -224 147 -131 270 106 112 20 34 81 vhcurveto
          83 vlineto
          -38 -96 -95 -18 -104 hhcurveto
          -218 -114 97 179 174 88 111 263 98 hvcurveto
          endchar
        </CharString>
        <CharString name="quotedbl">
          -374 135 callsubr
          301 -669 -37 callgsubr
        </CharString>
        <CharString name="quotedbl.tf">
          -492 127 947 rmoveto
          46 hlineto
          22 669 rlineto
          -90 hlineto
          251 -669 rmoveto
          47 hlineto
          21 669 rlineto
          -90 hlineto
          endchar
        </CharString>
        <CharString name="quotedblbase">
          -346 141 -304 rmoveto
          -42 callgsubr
          0 callgsubr
          282 hmoveto
          -42 callgsubr
          70 -30 29 -46 -42 -29 -30 -43 -45 31 -31 43 vhcurveto
          4 hlineto
          -3 -94 -23 -92 -35 -107 rrcurveto
          endchar
        </CharString>
        <CharString name="quotedblleft">
          -346 222 callsubr
          282 hmoveto
          41 29 30 44 45 -31 30 -42 hvcurveto
          -5 hlineto
          4 95 22 91 35 107 rrcurveto
          -55 hlineto
          -42 -97 -33 -119 -127 vvcurveto
          -70 30 -29 47 vhcurveto
          endchar
        </CharString>
        <CharString name="quotedblright">
          -346 141 1185 rmoveto
          -42 callgsubr
          1 callgsubr
          282 hmoveto
          -42 callgsubr
          69 -30 30 -46 -42 -29 -30 -44 -45 31 -30 43 vhcurveto
          4 hlineto
          -3 -95 -23 -91 -35 -107 rrcurveto
          endchar
        </CharString>
        <CharString name="quoteleft">
          -628 222 callsubr
          endchar
        </CharString>
        <CharString name="quoteright">
          -628 141 1185 rmoveto
          -42 callgsubr
          1 callgsubr
          endchar
        </CharString>
        <CharString name="quotesinglbase">
          -628 141 -304 rmoveto
          -42 callgsubr
          0 callgsubr
          endchar
        </CharString>
        <CharString name="quotesingle">
          -651 135 callsubr
          endchar
        </CharString>
        <CharString name="quotesingle.tf">
          -492 239 947 -37 callgsubr
        </CharString>
        <CharString name="r">
          96 callsubr
          endchar
        </CharString>
        <CharString name="r.sc">
          60 174 hmoveto
          31 callsubr
        </CharString>
        <CharString name="racute">
          -390 330 -55 callsubr
          -359 -1616 rmoveto
          97 callsubr
        </CharString>
        <CharString name="racute.sc">
          60 478 112 callsubr
          -458 -1599 rmoveto
          31 callsubr
        </CharString>
        <CharString name="radical">
          281 693 hmoveto
          120 hlineto
          479 1480 -90 0 -448 -1397 -315 998 rlineto
          -328 -79 259 hlineto
          endchar
        </CharString>
        <CharString name="radical.tf">
          40 522 hmoveto
          119 hlineto
          400 1480 -90 0 -368 -1389 -236 990 rlineto
          -327 -79 259 hlineto
          endchar
        </CharString>
        <CharString name="rcaron">
          -390 323 1261 rmoveto
          92 55 callgsubr
          -80 hlineto
          30 -1616 rmoveto
          97 callsubr
        </CharString>
        <CharString name="rcaron.sc">
          60 472 -58 callsubr
          -28 callsubr
          -80 -1599 rmoveto
          31 callsubr
        </CharString>
        <CharString name="registered">
          483 753 268 rmoveto
          362 248 250 364 364 -248 252 -362 -362 -248 -252 -364 -364 248 -250 362 hvcurveto
          72 vmoveto
          -324 -212 213 329 329 212 215 324 324 212 -215 -329 -329 -212 -213 -324 hvcurveto
          -209 260 rmoveto
          72 hlineto
          1 223 rlineto
          122 hlineto
          12 11 1 11 hhcurveto
          153 -224 83 0 -160 236 rlineto
          90 25 45 59 87 vvcurveto
          117 -84 68 -161 vhcurveto
          -195 hlineto
          73 -302 rmoveto
          236 135 vlineto
          108 52 -39 -80 -80 -50 -37 -110 hvcurveto
          endchar
        </CharString>
        <CharString name="ring">
          -98 463 80 callsubr
          -67 callsubr
          58 vmoveto
          86 callsubr
          -88 callgsubr
          endchar
        </CharString>
        <CharString name="s">
          -225 359 -18 rmoveto
          -34 callsubr
        </CharString>
        <CharString name="s.sc">
          -176 364 -14 89 callsubr
          endchar
        </CharString>
        <CharString name="sacute">
          -225 366 -55 callsubr
          -189 -1634 rmoveto
          -34 callsubr
        </CharString>
        <CharString name="sacute.sc">
          -176 389 -94 callsubr
          -103 callsubr
          -179 -1613 89 callsubr
          endchar
        </CharString>
        <CharString name="scaron">
          -225 359 -77 callgsubr
          200 -1634 rmoveto
          -34 callsubr
        </CharString>
        <CharString name="scaron.sc">
          -176 382 1324 rmoveto
          -53 callgsubr
          200 -1613 89 callsubr
          endchar
        </CharString>
        <CharString name="scedilla">
          -225 359 -18 rmoveto
          6 5 0 6 hhcurveto
          -147 -101 callgsubr
          -49 -53 9 30 -56 hvcurveto
          -62 vlineto
          -22 41 62 -13 52 hhcurveto
          114 64 57 89 83 -50 54 -93 9 hvcurveto
          98 vlineto
          188 24 101 108 166 vvcurveto
          146 -65 94 -195 49 vhcurveto
          207 callsubr
        </CharString>
        <CharString name="scedilla.sc">
          -176 364 -14 rmoveto
          11 9 0 10 hhcurveto
          -151 38 vlineto
          81 49 -28 -62 -63 -49 -28 -78 40 callgsubr
          102 vlineto
          204 25 109 115 180 vvcurveto
          169 -94 96 -212 56 vhcurveto
          -51 14 rlineto
          -188 50 -59 62 134 vvcurveto
          146 99 86 215 80 79 -11 -24 81 vhcurveto
          83 vlineto
          20 -68 -92 11 -81 hhcurveto
          -269 -136 -122 -194 -175 97 -90 214 -57 hvcurveto
          51 -14 rlineto
          184 -49 60 -68 -128 vvcurveto
          -158 -104 -84 -210 -84 -95 15 32 -96 vhcurveto
          -83 vlineto
          -30 86 102 -13 84 hhcurveto
          endchar
        </CharString>
        <CharString name="scircumflex">
          -225 161 23 callsubr
          -1634 vmoveto
          -34 callsubr
        </CharString>
        <CharString name="scircumflex.sc">
          -176 164 1324 -107 callgsubr
          88 0 -218 275 rlineto
          -92 hlineto
          -18 -1613 89 callsubr
          endchar
        </CharString>
        <CharString name="second">
          -374 135 callsubr
          301 -669 -37 callgsubr
        </CharString>
        <CharString name="section">
          -125 390 -18 rmoveto
          241 129 114 187 78 -19 63 -49 49 hvcurveto
          56 51 33 71 89 vvcurveto
          146 -64 94 -194 49 vhcurveto
          -117 28 rlineto
          -129 32 -51 65 106 vvcurveto
          119 84 94 200 75 61 -7 -21 80 vhcurveto
          81 vlineto
          17 -68 -69 -46 callgsubr
          -80 22 -64 51 -49 hvcurveto
          -59 -52 -35 -72 -83 vvcurveto
          -144 68 -95 184 -46 vhcurveto
          117 -28 rlineto
          128 -32 58 -56 -122 vvcurveto
          -138 -93 -78 -188 -81 -77 12 30 -97 vhcurveto
          -82 vlineto
          -26 80 83 -13 91 hhcurveto
          110 586 rmoveto
          -117 28 rlineto
          -130 33 -54 67 108 vvcurveto
          63 25 55 51 41 vhcurveto
          32 -18 39 -14 45 -11 118 -28 rcurveline
          129 -33 62 -59 -122 vvcurveto
          -67 -24 -53 -46 -38 vhcurveto
          -35 19 -43 16 -52 13 rrcurveto
          endchar
        </CharString>
        <CharString name="semicolon">
          -628 197 943 rmoveto
          38 callgsubr
          -56 -1247 rmoveto
          -42 callgsubr
          0 callgsubr
          endchar
        </CharString>
        <CharString name="semicolon.tf">
          -492 266 943 rmoveto
          42 31 64 callgsubr
          -57 -1219 rmoveto
          59 hlineto
          37 83 34 119 113 42 callgsubr
          -83 -24 -89 -33 -93 rrcurveto
          endchar
        </CharString>
        <CharString name="seven">
          -176 164 hmoveto
          93 hlineto
          533 1429 rlineto
          51 -780 -81 679 vlineto
          endchar
        </CharString>
        <CharString name="seven.dnom">
          -300 165 -136 129 callsubr
        </CharString>
        <CharString name="seven.numr">
          -300 165 616 129 callsubr
        </CharString>
        <CharString name="seven.osf">
          -179 156 -400 rmoveto
          92 hlineto
          533 1430 rlineto
          51 -779 -81 679 vlineto
          endchar
        </CharString>
        <CharString name="seven.tf">
          40 247 hmoveto
          92 hlineto
          600 1429 rlineto
          51 -863 -81 760 vlineto
          endchar
        </CharString>
        <CharString name="seven.tosf">
          40 247 -400 rmoveto
          92 hlineto
          600 1430 rlineto
          51 -863 -81 760 vlineto
          endchar
        </CharString>
        <CharString name="seveneighths">
          637 165 616 rmoveto
          82 hlineto
          392 953 rlineto
          47 -586 -74 496 vlineto
          -136 -1678 8 callsubr
          140 -1764 -51 callsubr
          -98 callgsubr
        </CharString>
        <CharString name="six">
          13 584 -18 rmoveto
          222 174 138 290 287 -179 136 -242 -132 -128 -46 -78 -81 hvcurveto
          1 vlineto
          514 163 193 300 81 85 -14 -29 70 vhcurveto
          83 vlineto
          29 -69 -85 12 -80 hhcurveto
          -356 -199 32 callgsubr
          200 75 callgsubr
          -148 62 callgsubr
        </CharString>
        <CharString name="six.dnom">
          -300 407 -148 91 callsubr
        </CharString>
        <CharString name="six.numr">
          -300 407 604 91 callsubr
        </CharString>
        <CharString name="six.osf">
          14 571 -18 rmoveto
          222 173 138 290 287 -179 136 -241 -133 -128 -46 -78 -80 hvcurveto
          1 vlineto
          514 162 193 301 81 84 -14 -29 70 vhcurveto
          83 vlineto
          29 -68 -86 12 -80 hhcurveto
          -356 -198 32 callgsubr
          199 75 callgsubr
          -147 62 callgsubr
        </CharString>
        <CharString name="six.tf">
          40 193 callsubr
        </CharString>
        <CharString name="six.tosf">
          40 193 callsubr
        </CharString>
        <CharString name="slash">
          -535 -240 vmoveto
          88 hlineto
          400 1856 rlineto
          -88 hlineto
          endchar
        </CharString>
        <CharString name="slash.tf">
          40 286 -240 rmoveto
          89 hlineto
          400 1856 rlineto
          -89 hlineto
          endchar
        </CharString>
        <CharString name="space">
          -574 endchar
        </CharString>
        <CharString name="sterling">
          122 78 hmoveto
          1003 81 -697 630 506 78 -506 287 -32 callgsubr
          -286 -218 -78 218 -630 -218 vlineto
          endchar
        </CharString>
        <CharString name="sterling.tf">
          40 78 hmoveto
          970 81 -664 630 474 78 -474 287 -31 callgsubr
          -286 -218 -78 218 -630 -218 vlineto
          endchar
        </CharString>
        <CharString name="summation">
          14 58 -440 rmoveto
          834 49 callgsubr
          -834 -51 hlineto
          524 -909 -524 -909 rlineto
          endchar
        </CharString>
        <CharString name="summation.tf">
          40 114 -440 rmoveto
          833 49 callgsubr
          -833 -51 hlineto
          524 -909 -524 -909 rlineto
          endchar
        </CharString>
        <CharString name="t">
          12 callsubr
          -35 callsubr
          -75 callgsubr
          endchar
        </CharString>
        <CharString name="t.sc">
          128 callsubr
          endchar
        </CharString>
        <CharString name="tbar">
          12 callsubr
          301 287 72 -287 312 331 79 -331 399 -76 vlineto
          -12 -399 rlineto
          -206 -79 206 -312 -146 -72 146 -315 hlineto
          -75 callgsubr
          endchar
        </CharString>
        <CharString name="tbar.sc">
          -102 416 hmoveto
          88 598 266 69 -266 443 403 80 -894 -80 403 -443 -266 -69 266 hlineto
          endchar
        </CharString>
        <CharString name="tcaron">
          -368 473 1180 rmoveto
          57 hlineto
          29 140 9 163 133 vvcurveto
          -76 hlineto
          -127 -2 -168 -17 -141 vhcurveto
          38 -1198 169 callsubr
          -35 callsubr
          -75 callgsubr
          endchar
        </CharString>
        <CharString name="tcaron.sc">
          -102 415 -58 callsubr
          59 callsubr
          219 -1599 rmoveto
          88 1110 403 80 -894 -80 403 hlineto
          endchar
        </CharString>
        <CharString name="thorn">
          -15 callgsubr
          -174 130 -205 -129 -95 -55 -71 -58 hvcurveto
          -7 645 -88 hlineto
          264 -1554 rmoveto
          -59 -71 7 11 -46 hvcurveto
          783 vlineto
          103 61 107 49 106 hhcurveto
          169 61 callgsubr
        </CharString>
        <CharString name="thorn.sc">
          4 174 hmoveto
          88 219 hlineto
          -4 54 52 -3 58 hhcurveto
          341 156 140 259 275 -161 124 -307 -76 -67 -7 -7 -50 hvcurveto
          195 -88 vlineto
          254 -902 rmoveto
          -59 -53 2 7 -54 hvcurveto
          620 vlineto
          9 61 64 6 72 hhcurveto
          253 122 -98 -227 -214 -124 -105 -282 hvcurveto
          endchar
        </CharString>
        <CharString name="three">
          -102 374 -18 rmoveto
          302 171 147 261 201 -112 135 -213 45 hvcurveto
          177 55 101 132 176 vvcurveto
          233 -148 131 -269 -106 -112 -19 -35 -81 vhcurveto
          -82 vlineto
          38 96 95 17 105 hhcurveto
          217 114 -97 -188 -207 -149 -124 -278 hvcurveto
          -53 -81 134 hlineto
          269 124 -126 -204 -216 -139 -111 -246 -102 -113 19 38 -106 hvcurveto
          -82 vlineto
          -37 99 111 -19 112 hhcurveto
          endchar
        </CharString>
        <CharString name="three.dnom">
          -300 302 -148 -49 callsubr
          73 hhcurveto
          149 -9 callsubr
        </CharString>
        <CharString name="three.numr">
          -300 302 604 -49 callsubr
          73 hhcurveto
          149 -9 callsubr
        </CharString>
        <CharString name="three.osf">
          -133 329 -420 rmoveto
          301 171 147 261 202 -112 134 -213 46 hvcurveto
          177 55 101 132 176 vvcurveto
          233 -147 131 -270 -105 -112 -19 -34 -82 vhcurveto
          -83 vlineto
          38 96 95 17 106 hhcurveto
          216 114 -96 -189 -207 -148 -124 -278 hvcurveto
          -54 -81 135 hlineto
          268 124 -126 -204 -217 -139 -111 -245 -102 -113 19 39 -107 hvcurveto
          -83 vlineto
          -37 99 111 -19 113 hhcurveto
          endchar
        </CharString>
        <CharString name="three.tf">
          40 446 -18 rmoveto
          313 179 147 261 201 -117 135 -222 45 hvcurveto
          184 55 106 132 176 vvcurveto
          233 -154 131 -280 -110 -118 -19 -35 -84 vhcurveto
          -82 vlineto
          38 100 99 17 110 hhcurveto
          228 120 -97 -188 -207 -157 -124 -291 hvcurveto
          -56 -81 140 hlineto
          282 131 -126 -204 -216 -147 -111 -257 -106 -118 19 38 -111 hvcurveto
          -82 vlineto
          -37 102 116 -19 118 hhcurveto
          endchar
        </CharString>
        <CharString name="three.tosf">
          40 411 -420 rmoveto
          316 181 147 261 202 -117 134 -225 46 hvcurveto
          186 55 106 132 176 vvcurveto
          233 -155 131 -283 -112 -116 -19 -34 -86 vhcurveto
          -83 vlineto
          38 101 99 17 111 hhcurveto
          231 121 -96 -189 -207 -158 -124 -295 hvcurveto
          -56 -81 141 hlineto
          286 132 -126 -204 -217 -149 -111 -260 -106 -119 19 39 -113 hvcurveto
          -83 vlineto
          -37 106 115 -19 118 hhcurveto
          endchar
        </CharString>
        <CharString name="threeeighths">
          637 302 604 -49 callsubr
          210 callsubr
          111 -740 8 callsubr
          140 -1764 -51 callsubr
          -98 callgsubr
        </CharString>
        <CharString name="threequarters">
          637 302 604 -49 callsubr
          210 callsubr
          111 -740 8 callsubr
          -196 -1504 150 callsubr
        </CharString>
        <CharString name="tilde">
          -98 591 1372 -77 callsubr
          endchar
        </CharString>
        <CharString name="tildecomb">
          591 1372 -77 callsubr
          endchar
        </CharString>
        <CharString name="tildecomb.case">
          601 1690 -100 callsubr
          -62 callsubr
          endchar
        </CharString>
        <CharString name="tildecomb.sc">
          601 1690 -100 callsubr
          -62 callsubr
          endchar
        </CharString>
        <CharString name="tildecomb_acutecomb">
          164 callsubr
          14 -504 -77 callsubr
          endchar
        </CharString>
        <CharString name="tildecomb_acutecomb.case">
          16 callsubr
          25 -432 -100 callsubr
          -62 callsubr
          endchar
        </CharString>
        <CharString name="tildecomb_acutecomb.sc">
          16 callsubr
          25 -432 -100 callsubr
          -62 callsubr
          endchar
        </CharString>
        <CharString name="trademark">
          827 325 480 rmoveto
          79 924 314 76 -707 -76 314 hlineto
          492 -924 rmoveto
          76 855 hlineto
          321 72 callgsubr
          -92 vlineto
          -341 -776 -344 776 rlineto
          -93 hlineto
          endchar
        </CharString>
</ttFont>
